<svg width="1840" height="1380" viewBox="0 0 1840 1380" fill="none" xmlns="http://www.w3.org/2000/svg">
<g clip-path="url(#clip0_23_0)">
<path d="M918.659 1121.63C1175.14 1121.63 1383.06 913.71 1383.06 657.227C1383.06 400.744 1175.14 192.823 918.659 192.823C662.175 192.823 454.255 400.744 454.255 657.227C454.255 913.71 662.175 1121.63 918.659 1121.63Z" fill="#E05D5D"/>
<path d="M514.708 558.465L512.284 558.047C512.407 557.334 525.177 486.142 574.545 431.545L576.366 433.193C527.477 487.261 514.831 557.764 514.708 558.465Z" fill="white"/>
<path d="M582.001 386.422L579.971 385.044C580.364 384.466 619.879 327.15 683.271 299.188L684.268 301.439C621.539 329.106 582.394 385.856 582.001 386.422Z" fill="white"/>
<path d="M1355.95 648.8H1353.49C1353.49 560.508 1313.42 480.483 1313.01 479.683L1315.2 478.576C1315.61 479.376 1355.95 559.905 1355.95 648.8Z" fill="white"/>
<path d="M1308.04 602.766C1306.15 567.594 1294.7 537.995 1294.59 537.7L1296.87 536.802C1296.98 537.097 1308.57 567.053 1310.5 602.63L1308.04 602.766Z" fill="white"/>
<path d="M437.525 541.735L435.113 541.219C435.261 540.505 450.798 469.682 505.247 398.108L507.204 399.597C453.087 470.74 437.672 541.034 437.525 541.735Z" fill="black"/>
<path d="M514.437 343.807L512.555 342.232C512.702 342.06 527.133 324.862 545.537 307.491L547.222 309.275C528.916 326.547 514.572 343.635 514.437 343.807Z" fill="black"/>
<path d="M575.283 309.189L573.413 307.589C573.622 307.343 594.708 282.985 634.948 255.527C672.063 230.197 733.549 196.957 815.74 182.379L816.17 184.802C734.41 199.307 673.244 232.375 636.338 257.557C596.356 284.831 575.48 308.943 575.283 309.189Z" fill="black"/>
<path d="M1381.88 498.948C1361.18 414.556 1295.48 341.703 1294.82 340.977L1296.64 339.316C1297.31 340.042 1363.42 413.375 1384.27 498.358L1381.88 498.948Z" fill="black"/>
<path d="M1400.13 621.809C1397.68 591.115 1391.82 564.248 1387.34 547.111L1389.73 546.483C1394.23 563.719 1400.13 590.734 1402.59 621.612L1400.13 621.809Z" fill="black"/>
<path d="M1413.47 737.818L1411.07 737.264C1413.19 728.111 1415.04 718.184 1416.56 707.764L1419 708.12C1417.46 718.602 1415.59 728.591 1413.47 737.818Z" fill="black"/>
<path d="M1423.55 662.074L1421.09 661.938C1423.02 626.509 1421.31 592.346 1416.82 576.931L1419.18 576.242C1423.75 591.903 1425.49 626.398 1423.55 662.074Z" fill="black"/>
<path d="M1384.83 774.159L1382.5 773.408C1386.82 759.974 1390.48 741.275 1393.4 717.864L1395.83 718.172C1392.9 741.73 1389.2 760.565 1384.83 774.159Z" fill="black"/>
<path d="M1398.05 697.615L1395.6 697.393C1396.5 687.65 1396.89 681.179 1396.89 681.105L1399.35 681.253C1399.34 681.315 1398.94 687.847 1398.05 697.615Z" fill="black"/>
<path d="M1148.93 233.998C1084.45 192.958 976.466 178.86 975.384 178.725L975.691 176.289C975.962 176.326 1003.31 179.844 1038.31 188.419C1070.64 196.341 1116.29 210.317 1150.26 231.931L1148.93 233.998Z" fill="black"/>
<path d="M1095.14 189.822C1077.85 182.194 1037.66 173.128 1037.25 173.041L1037.79 170.643C1038.2 170.729 1078.62 179.845 1096.14 187.583L1095.14 189.822Z" fill="black"/>
<path d="M571.74 1012.24C566.524 1008.12 561.369 1003.8 556.424 999.421L558.06 997.576C562.981 1001.93 568.098 1006.22 573.278 1010.31L571.74 1012.24Z" fill="black"/>
<path d="M530.172 973.612C459.668 896.724 446.161 812.824 446.025 811.987L448.461 811.618C448.584 812.455 462.006 895.641 531.98 971.951L530.172 973.612Z" fill="black"/>
<path d="M549.498 967.252C524.254 946.437 500.659 898.938 500.425 898.459L502.627 897.376C502.861 897.843 526.235 944.874 551.06 965.357L549.498 967.252Z" fill="black"/>
<path d="M794.014 1125.21C758.129 1118.35 722.675 1106.14 688.635 1088.93L689.742 1086.73C723.585 1103.83 758.818 1115.96 794.482 1122.79L794.014 1125.21Z" fill="black"/>
<path d="M645.159 1063.58C627.518 1051.77 617.639 1043.01 617.541 1042.92L619.177 1041.09C619.276 1041.17 629.043 1049.84 646.525 1061.53L645.159 1063.58Z" fill="black"/>
<path d="M940.938 1151.06L940.815 1148.6C949.919 1148.15 958.826 1147.47 967.277 1146.55L967.548 1149C959.047 1149.93 950.091 1150.61 940.938 1151.06Z" fill="black"/>
<path d="M908.596 1151.62C852.277 1151.01 805.086 1142.57 804.606 1142.48L805.049 1140.06C805.517 1140.14 852.523 1148.56 908.621 1149.16L908.596 1151.62Z" fill="black"/>
<path d="M639.427 990.219C561.825 935.807 533.235 849.496 532.952 848.635L535.29 847.872C535.573 848.733 563.929 934.282 640.841 988.202L639.427 990.219Z" fill="white"/>
<path d="M809.096 1084.37C748.189 1073.67 687.207 1032.9 686.604 1032.48L687.982 1030.44C688.585 1030.84 749.148 1071.33 809.527 1081.93L809.096 1084.37Z" fill="white"/>
<path d="M708.896 1010.42C692.682 1005.34 673.109 987.194 672.285 986.431L673.958 984.635C674.155 984.819 693.949 1003.16 709.622 1008.08L708.896 1010.42Z" fill="white"/>
<path d="M1000.31 259.403C987.944 266.932 934.171 298.4 895.358 327.999C889.182 332.711 884.582 339.169 882.158 346.551C877.126 361.916 872.612 378.979 871.332 383.924C871.037 385.069 871.185 386.286 871.775 387.307C875.404 393.705 895.297 415.725 1003.68 454.059L1029.12 399.031C1029.12 399.031 1013.05 296.641 1008.12 262.441C1007.61 259.009 1003.67 257.361 1000.31 259.403Z" fill="white"/>
<path d="M1245.09 874.802L1111.68 890.475C1090.04 893.021 1071.12 906.271 1061.34 925.745L1001.62 1045.73C999.077 1050.8 993.418 1053.49 987.882 1052.27L966.661 1047.6C951.776 1044.31 936.902 1053.15 932.658 1067.78L929.337 1079.26C927.491 1085.62 930.395 1092.39 936.275 1095.44L1034.24 1146.21C1040.73 1149.57 1048.72 1147.32 1052.49 1141.06L1150.95 980.723L1287.02 972.148L1245.09 874.802Z" fill="#00A19D"/>
<path d="M1169.58 772.351L1179.31 747.943L1259.81 752.261L1230.57 862.771L1169.58 772.351Z" fill="#00A19D"/>
<path d="M1159.42 713.362C1159.42 713.362 1168.27 690.468 1168.13 678.031C1167.96 661.485 1169.76 627.814 1159.21 629.401C1152.79 630.36 1150.87 645.935 1150.09 652.627C1149.78 655.272 1148.76 657.806 1146.98 659.799C1144.46 662.641 1140.88 663.736 1139 650.856C1135.94 629.868 1136.6 589.48 1124.41 596.874C1118.23 600.626 1121.54 637.299 1118.05 635.675C1114.56 634.051 1114.99 578.667 1100.13 584.707C1095.22 586.7 1096.32 613.162 1097.33 627.961C1097.4 628.786 1096.19 628.958 1096.01 628.146C1094 619.202 1090.92 606.174 1088.46 598.535C1085.82 590.305 1079.67 594.61 1079.67 600.614C1079.67 613.531 1081.86 640.731 1081.86 640.731L1159.42 713.362Z" fill="#00A19D"/>
<path d="M1366.04 786.843L1388.18 824.979L1336.51 991.057C1331.66 1007.9 1312.4 1018.4 1295.1 1015.53L1228.6 1008.14C1220.06 1006.72 1217 1011.1 1219.99 1019.22L1248.69 1150.91C1253.56 1164.16 1246.01 1178.73 1232.36 1182.38L1133.4 1208.83C1123.82 1211.39 1114.25 1204.7 1113.38 1194.82L1107.68 1160.83C1107.45 1158.23 1106.71 1147.81 1112.6 1143.6C1121.21 1137.45 1134.75 1128.84 1134.75 1128.84C1139.31 1126.39 1139.78 1119.07 1138.44 1114.08L1100.84 967.88C1094.7 945.01 1108.94 927.283 1132.3 923.396C1161.82 918.475 1211.03 907.403 1211.03 907.403L1232.1 769.927C1234.87 759.015 1244.95 751.548 1256.2 752.089L1288.53 753.627L1366.04 786.843Z" fill="#FFB344"/>
<path d="M1353.33 750.7C1360.06 722.235 1342.43 693.71 1313.96 686.988C1285.5 680.267 1256.97 697.894 1250.25 726.359C1243.53 754.825 1261.16 783.349 1289.62 790.071C1318.09 796.792 1346.61 779.165 1353.33 750.7Z" fill="#FFB344"/>
<path d="M820.845 737.806L996.839 578.593C1005.93 570.363 1019.23 571.015 1029.99 576.883C1051.76 588.754 1089.08 609.975 1122.37 646.045C1150.32 676.333 1196.76 724.422 1202.25 765.129C1202.87 769.792 1201.25 774.466 1197.99 777.849C1144.33 833.443 1035.17 935.833 1022.97 946.24C994.083 970.881 919.176 915.251 876.5 865.649C858.674 844.945 798.541 758.843 820.845 737.806Z" fill="white"/>
<path d="M1394.21 796.585C1377.87 780.506 1349.95 781.466 1332.72 796.228L1271.67 851.834C1268.32 854.614 1263.36 854.184 1260.55 850.874L1217.29 800.313C1210.33 792.156 1206.12 782.02 1205.26 771.341L1203.7 752.064C1203.59 750.76 1203.28 749.481 1202.76 748.275L1194.88 727.976C1193.8 725.184 1190.03 724.839 1188.39 727.349C1186.18 730.757 1184.97 735.887 1184.97 740.98C1184.97 750.821 1187.29 761.45 1183.6 761.45C1178.68 761.45 1172.83 751.781 1170.33 742.702C1167.47 732.258 1166.04 723.929 1160.99 719.304C1158.7 717.212 1154.63 718.59 1154 722.071C1152.53 730.092 1154.22 745.199 1154.35 753.774C1154.39 756.234 1152.19 756.185 1151.51 753.196C1149.43 743.932 1143.76 715.625 1143.76 715.625C1142.86 711.898 1137.72 711.467 1136.23 715.01C1131.98 725.184 1133.56 747.315 1134.34 755.545C1134.41 756.271 1133.43 756.567 1133.1 755.927C1131.04 752.089 1127.41 744.535 1124.82 734.915C1124.24 732.774 1121.31 732.307 1120.23 734.238C1116.97 740.106 1118.63 754.118 1119.5 759.876C1119.59 760.417 1118.85 760.663 1118.58 760.196C1117.17 757.711 1116.08 755.361 1114.99 752.556C1113.57 748.927 1110.53 751.006 1110.28 753.306C1109.42 761.069 1108.97 772.166 1112.27 786.387C1113.46 791.517 1117.78 806.907 1137.13 830.047L1240.47 944.456C1258.92 967.83 1282.57 961.667 1295.83 951.838C1329.04 927.233 1390.36 866.621 1390.36 866.621C1413.68 846.938 1408.8 810.942 1394.21 796.585Z" fill="#FFB344"/>
<path d="M932.092 832.742C870.336 766.729 838.141 747.698 822.419 745.938C818.938 745.545 815.924 748.264 815.948 751.77C816.133 783.927 861.429 848.156 876.487 865.675C910.859 905.644 966.181 949.526 1001.49 952.171C1004.19 952.367 1006.38 950.018 1006.08 947.336C1003.94 928.464 989.026 893.6 932.092 832.742Z" fill="#FFB344" fill-opacity="0.6"/>
<path d="M872.305 388.206C877.189 399.967 933.311 436.147 1003.65 454.071L1005.75 449.557C978.447 425.629 931.256 401.615 896.22 392.573C883.377 389.264 876.377 387.726 872.305 388.206Z" fill="#FFB344" fill-opacity="0.6"/>
<path d="M1007.01 283.108C1000.57 277.732 992.901 274.165 984.253 272.504L984.72 270.093C993.787 271.84 1001.81 275.58 1008.59 281.214L1007.01 283.108Z" fill="black"/>
<path d="M1101.07 691.169L1075.03 669.358C1070.95 665.938 1065.64 664.351 1060.35 664.991C1039.26 667.525 984.093 674.943 965.603 685.105C958.751 688.869 943.915 705.305 943.915 705.305C938.539 710.877 938.514 719.698 943.865 725.308L977.721 762.718C980.07 765.314 984.032 765.609 986.738 763.395L1013.8 741.227C1016.73 738.828 1017.03 734.448 1014.44 731.668L1008.99 725.837C1006.82 723.795 1007.82 720.141 1010.75 719.513L1098.76 700.617C1103.14 699.646 1104.53 694.06 1101.07 691.169ZM1060.51 729.318C1056.28 726.317 1051.02 726.058 1047.03 729.355L965.271 796.881C960.35 800.941 960.043 810.82 964.213 815.654C967.448 819.406 973.969 826.886 977.13 830.724C982.974 837.823 992.569 838.044 997.281 833.751L1019.35 813.637C1021.36 811.816 1024.46 811.939 1026.3 813.92L1030.98 818.939C1034.29 822.408 1039.75 822.58 1043.27 819.333L1067.64 796.82C1072.25 792.551 1072.29 785.268 1067.7 780.962L1065.45 778.846C1063.34 776.878 1063.37 773.52 1065.5 771.588L1076.72 761.365C1080.9 757.551 1082.39 749.002 1077.11 744.019C1077.12 744.019 1065.99 733.218 1060.51 729.318Z" fill="#00A19D"/>
<path d="M882.281 394.787C897.794 407.003 938.342 429.22 988.423 445.471L990.072 442.015C969.38 424.435 922.251 402.599 883.29 392.732C882.072 392.425 881.285 394.012 882.281 394.787Z" fill="black"/>
<path d="M826.48 758.72C833.516 749.813 895.691 807.818 916.765 829.31C952.834 866.08 1005.22 937.248 992.595 940.57C984.734 942.636 936.103 915.399 884.767 857.371C845.708 813.206 822.137 764.219 826.48 758.72Z" fill="black"/>
<path d="M1241.88 245.477L1240.06 234.429C1238.55 225.24 1229.46 220.737 1220.68 223.862C1209.16 227.946 1194.23 232.793 1186.13 239.092C1182.92 241.589 1181.17 245.526 1181.51 249.573C1184.47 285.532 1187.87 313.556 1189.48 325.932C1190.04 330.324 1188.59 334.741 1185.52 337.927L1149.59 375.288L1186.02 393.914L1254.21 330.373L1241.88 245.477Z" fill="#00A19D"/>
<path d="M1003.67 454.071L1029.72 397.715C1034.24 387.959 1043.76 381.501 1054.49 380.898L1108.48 377.909C1121.77 377.17 1134.7 373.332 1146.23 366.701C1155.68 361.276 1167.31 361.325 1176.71 366.849C1182.88 370.478 1190.68 369.802 1196.14 365.164L1215.64 348.605C1217.88 346.698 1219.09 343.856 1218.9 340.929C1217.87 325.256 1214.59 273.931 1214.17 248.909C1214.11 245.427 1216.06 242.217 1219.19 240.691C1232.16 234.356 1252.49 231.268 1268.06 233.925C1271.91 234.577 1274.93 237.739 1275.17 241.638C1276.22 258.714 1264.56 277.007 1264.56 277.007L1274.83 354.227C1277.09 371.253 1269.82 388.144 1255.91 398.207L1191.04 445.103C1186.12 448.658 1181 451.955 1175.71 454.944C1163.15 462.067 1149.72 467.529 1135.75 471.183L1086.04 484.186L1003.67 454.071Z" fill="#FFB344"/>
<path d="M1026.02 403.436L1056.22 398.859L1079.69 423.796L1034.2 467.087L1010.14 439.899L1026.02 403.436Z" fill="#00A19D"/>
<path d="M1099.9 389.321C1105.81 366.708 1092.27 343.585 1069.66 337.674C1047.05 331.764 1023.93 345.303 1018.02 367.916C1012.11 390.528 1025.64 413.651 1048.26 419.562C1070.87 425.473 1093.99 411.933 1099.9 389.321Z" fill="#FFB344"/>
<path d="M950.607 363.096L958.616 350.733C959.969 348.641 959.145 345.837 956.869 344.816L953.523 343.315C951.505 342.404 951.247 339.649 953.067 338.382L988.83 313.593C990.638 312.338 990.232 309.558 988.141 308.857L971.767 303.456C969.823 302.816 967.707 303.099 965.997 304.231L930.788 327.543C928.623 328.97 926.876 330.939 925.695 333.239L920.75 342.884C918.253 347.756 920.393 353.722 925.412 355.887L945.575 364.61C947.408 365.409 949.537 364.757 950.607 363.096ZM992.889 357.634L991.069 356.502C989.445 355.494 988.83 353.439 989.617 351.705L992.028 346.415C993.443 343.315 992.237 339.649 989.26 337.988L981.178 333.485C978.004 331.726 974.006 332.87 972.271 336.056L947.851 380.565C946.228 383.53 947.126 387.245 949.93 389.14L958.579 394.959C961.765 397.099 966.108 396.041 967.965 392.683L974.965 379.926C976.011 378.031 978.422 377.391 980.267 378.511L981.227 379.101C983.331 380.393 986.086 379.606 987.193 377.404L994.415 363.133C995.424 361.177 994.747 358.791 992.889 357.634Z" fill="#00A19D"/>
<path d="M1131.3 399.831C1119.47 389.264 1101.42 389.891 1090.33 401.234L1057.39 434.966C1054.82 437.599 1051.03 438.645 1047.47 437.71L998.499 424.854C995.116 423.968 992.052 422.147 989.654 419.601L975.592 404.691C974.424 403.448 972.32 403.67 971.569 405.195C970.794 406.758 970.315 409.316 971.114 413.462C972.886 422.689 967.534 422.664 962.097 418.309C959.292 416.07 954.949 412.576 951.406 409.71C948.712 407.533 944.739 409.476 944.726 412.933C944.702 417.141 945.305 421.963 947.728 424.657C942.783 439.493 951.087 457.11 964.237 464.221C979.418 472.426 1061.24 497.707 1061.24 497.707C1069.19 500.057 1077.79 497.854 1083.63 491.986L1132.55 442.852C1144.56 430.82 1143.98 411.162 1131.3 399.831Z" fill="#FFB344"/>
<path d="M1033.38 350.573C1028.13 354.375 1024.05 359.849 1021.63 366.369C1016.16 381.07 1021.32 396.866 1032.83 406.302C1039.03 411.383 1048.49 412.588 1057.89 406.782C1064.01 403.005 1068.63 396.928 1071.31 389.719C1076.01 377.084 1072.84 363.983 1064.45 354.596C1057.56 346.907 1042.11 344.226 1033.38 350.573Z" fill="black"/>
<path d="M727.017 827.095C722.318 809.183 717.089 786.105 714.334 778.268C714.223 777.961 713.842 777.112 713.559 776.927C711.086 775.279 696.569 768.328 679.765 771.133C674.561 772.006 656.698 770.346 649.551 775.771C647.336 777.444 646.5 780.273 646.303 783.041C645.294 797.964 642.809 844.072 643.228 859.634C643.301 862.427 645.221 864.936 647.964 865.49C678.239 871.653 713.448 868.811 729.133 856.964C730.868 855.648 731.84 853.569 731.643 851.392C731.249 847.221 730.166 839.09 727.017 827.095Z" fill="white"/>
<path d="M554.025 707.605L504.005 691.969C501.409 691.157 499.785 688.573 500.166 685.879L507.892 631.836C508.433 628.022 505.789 624.492 501.975 623.938L470.728 619.165C469.264 618.956 466.114 620.051 466.114 624.258C466.114 626.312 466.68 627.456 467.726 628.711L473.373 635.514C474.43 636.781 474.886 638.455 474.615 640.078L467.935 681.413L490.805 730.117L546.373 736.059L554.025 707.605Z" fill="#00A19D"/>
<path d="M455.202 637.876L498.678 706.263C499.847 708.108 501.716 709.412 503.845 709.892L513.588 712.057C516.823 712.771 520.206 712.205 523.024 710.483L526.788 708.182C534.255 703.606 543.347 702.536 551.675 705.254L611.316 724.704L593.884 779.067L535.08 764.723C529.974 763.48 524.955 761.955 520.022 760.146C512.69 757.464 501.962 753.368 495.43 750.157C478.588 741.878 473.065 735.431 470.321 730.289C461.599 713.94 440.046 676.886 437.327 672.506C433.797 666.823 426.034 666.331 421.913 665.26C419.366 664.596 417.496 663.476 416.463 661.053L415.934 659.823C415.307 658.359 415.799 656.661 417.103 655.751L445.668 635.797C448.842 633.582 453.234 634.53 455.202 637.876Z" fill="#FFB344"/>
<path d="M637.913 761.918L690.541 761.881C694.835 761.857 699.263 763.136 701.527 765.732C702.88 767.282 705.292 770.628 706.571 772.24C707.457 773.371 707.137 774.835 705.857 774.528L699.473 772.24L700.604 776.152C701.379 778.268 699.448 779.227 697.812 778.403L691.452 775.401C691.612 777.173 689.742 778.428 688.155 777.603C685.227 776.078 684.107 775.094 680.06 772.338C679.051 771.661 677.858 771.317 676.64 771.378C665.789 771.92 658.138 773.273 651.519 775.979C646.611 777.985 646.488 783.09 646.401 784.689C646.254 787.383 642.612 795.454 642.612 795.454L608.351 788.404L602.286 765.596L637.913 761.918Z" fill="#00A19D"/>
<path d="M617.91 767.996C632.83 767.996 644.925 755.394 644.925 739.848C644.925 724.303 632.83 711.701 617.91 711.701C602.99 711.701 590.895 724.303 590.895 739.848C590.895 755.394 602.99 767.996 617.91 767.996Z" fill="#FFB344"/>
<path d="M629.658 806.304C629.658 806.304 613.038 835.657 610.541 853.003C609.741 858.588 613.813 863.718 619.423 864.382C624.393 864.96 632.082 865.243 643.658 864.321C641.985 859.092 645.799 812.615 647.435 793.83C647.656 791.308 644.544 789.955 642.834 791.825L629.658 806.304Z" fill="white"/>
<path d="M686.396 792.317C689.951 799.722 703.372 827.98 706.239 839.323C706.596 840.725 705.488 842.054 704.049 841.968C690.923 841.094 678.252 843.013 672.851 843.998C671.473 844.244 670.243 843.124 670.354 841.734L674.02 796.475C674.081 795.675 674.598 794.974 675.336 794.679L683.664 791.283C684.71 790.853 685.903 791.308 686.396 792.317Z" fill="white"/>
<path d="M703.15 830.182C697.073 814.288 685.522 790.521 685.522 790.521L682.803 791.628L695.695 841.746C699.275 841.709 703.015 841.931 706.755 842.288C706.583 839.901 705.168 835.485 703.15 830.182Z" fill="#00A19D" fill-opacity="0.27"/>
<path d="M706.767 842.287C706.755 842.078 696.839 834.033 696.839 834.033C695.142 832.741 692.854 832.569 690.996 833.59L671.62 844.207C676.295 843.309 691.525 840.811 706.767 842.287Z" fill="#00A19D"/>
<path d="M608.744 748.115C608.289 753.024 609.384 757.637 611.562 761.512C613.026 764.108 615.781 765.781 618.771 765.781C618.783 765.781 618.807 765.781 618.82 765.781C632.278 765.781 643.19 754.414 643.19 740.39C643.19 740.365 643.19 740.328 643.19 740.303C643.166 734.386 638.934 729.354 633.336 728.42C631.626 728.137 629.842 728.063 628.009 728.223C617.897 729.145 609.716 737.597 608.744 748.115Z" fill="black"/>
<path d="M695.905 795.909L690.098 796.586C689.631 796.635 689.397 796.045 689.766 795.762L694.638 792.083C696.545 790.644 695.401 787.618 693.026 787.802C687.749 788.208 680.946 788.774 676.086 789.291C675.287 789.377 674.93 788.294 675.631 787.888C677.809 786.646 678.953 786.043 681.216 784.776C684.452 782.955 681.266 780.396 677.563 780.532C670.637 780.802 663.735 784.973 658.482 784.973C648.985 784.973 622.695 783.693 622.695 783.693C620.616 783.62 618.685 782.562 617.516 780.839L596.16 749.235C590.181 741.337 578.9 739.873 571.113 745.987C563.719 751.782 562.132 762.349 567.508 770.063L598.78 810.131C601.671 813.833 606.063 816.072 610.762 816.232L678.854 815.199C686.974 815.211 692.682 807.855 693.408 804.029C695.499 802.614 696.988 801.064 698.058 799.661C699.3 798.013 697.972 795.663 695.905 795.909Z" fill="#FFB344"/>
<path d="M612.115 504.792C612.115 504.792 617.897 526.518 632.475 555.969C653.143 597.71 663.23 614.429 673.859 632.353C686.801 654.177 726.316 676.308 802.552 629.08C881.543 580.155 869.5 547.923 864.259 536.704C861.159 530.061 836.001 483.042 815.124 447.354C806.98 433.428 799.291 421.532 794.174 413.855C789.917 407.471 783.077 403.325 775.45 402.464C754.66 400.114 710.618 400.348 665.334 433.157C602.901 478.404 612.115 504.792 612.115 504.792Z" fill="white"/>
<path d="M867.432 560.594C869.511 550.101 864.984 539.373 856.164 533.296C833.798 517.869 789.991 517.205 734.447 552.291C673.416 590.845 672.001 623.47 681.08 641.542C698.869 659.097 737.227 669.542 802.539 629.08C849.348 600.096 864.185 576.968 867.432 560.594Z" fill="#FFB344" fill-opacity="0.6"/>
<path d="M692.51 640.349C684.919 629.486 684.772 595.459 741.742 558.811C799.169 521.868 849.546 532.374 856.952 552.291C864.357 572.208 823.096 608.683 777.136 632.033C735.555 653.168 700.924 652.393 692.51 640.349Z" fill="black"/>
<path d="M643.178 856.423C638.171 856.411 632.893 856.682 627.616 857.1C615.732 858.047 614.133 861.787 615.252 862.931C616.298 864.001 617.885 864.579 619.423 864.752C624.393 865.33 634.653 865.662 645.577 864.383C643.178 861.738 643.19 860.458 643.178 856.423Z" fill="black"/>
<path d="M726.747 783.176C723.191 778.785 721.162 779.326 714.666 779.228C717.422 788.749 722.219 808.814 727.017 827.107C731.815 845.388 731.84 854.688 731.84 854.688C737.868 853.889 742.727 852.991 754.525 851.01C764.157 849.386 765.018 841.415 760.036 834.033L726.747 783.176Z" fill="white"/>
<path d="M727.127 858.379C727.816 856.632 726.684 854.885 723.793 853.458C718.048 850.604 706.804 848.365 684.894 849.595C664.694 850.727 654.446 855.722 649.292 860.126C646.536 862.488 646.721 864.308 649.157 865.785C679.518 873.154 710.925 869.045 727.127 858.379Z" fill="#FFB344" fill-opacity="0.6"/>
<path d="M755.779 851.231C758.215 850.604 758.597 847.996 757.33 847.085C756.788 846.704 756.149 846.31 755.386 845.917C749.395 842.841 739.824 842.878 730.671 843.973C731.827 851.084 732.036 852.794 730.732 855.205C738.188 854.688 755.054 851.416 755.779 851.231Z" fill="black"/>
<path d="M684.87 497.596C681.29 488.591 681.18 478.553 685.399 471.971C686.383 470.433 688.192 467.924 687.282 466.349L679.359 454.859C677.686 451.955 673.319 453.776 671.313 456.47C661.435 469.794 657.744 487.152 665.125 505.679C675.964 532.928 696.09 540.9 716.831 535.831C720.19 535.007 721.826 531.205 720.091 528.216L714.039 518.19C712.71 515.889 710.163 514.622 707.506 514.831C698.55 515.557 689.693 509.701 684.87 497.596ZM743.957 465.451C728.272 440.613 703.348 436.824 687.023 443.024C684.169 444.107 682.877 447.416 684.403 450.061L693.31 462.129C694.368 463.95 696.459 464.836 698.513 464.442C707.223 462.757 717.926 466.127 724.975 476.781C730.573 485.245 730.56 498.494 721.678 507.007C719.734 508.877 719.931 512.088 721.284 514.425L726.968 524.23C729.219 528.105 734.251 528.474 737.683 525.608C753.774 512.174 754.955 482.871 743.957 465.451Z" fill="#00A19D"/>
<path d="M1095.34 463.715C1094.49 463.715 1093.63 463.494 1092.84 463.039C1086.82 459.533 1075.94 452.681 1070.84 446.32C1069.4 444.524 1069.43 441.904 1070.95 440.083L1086.93 420.818C1088.61 418.776 1091.6 418.419 1093.73 419.994C1098.75 423.721 1107.89 430.611 1112.75 434.916C1114.71 436.651 1115.01 439.53 1113.46 441.621C1107.88 449.174 1102.3 457.343 1099.49 461.526C1098.52 462.94 1096.94 463.715 1095.34 463.715ZM1090.75 421.47C1090.03 421.47 1089.3 421.778 1088.81 422.38L1072.83 441.646C1072.07 442.568 1072.03 443.872 1072.75 444.77C1077.8 451.057 1089.35 458.155 1094.09 460.911C1095.23 461.575 1096.69 461.243 1097.43 460.148C1100.27 455.941 1105.86 447.747 1111.47 440.145C1112.24 439.087 1112.1 437.623 1111.1 436.749C1106.31 432.505 1097.24 425.665 1092.24 421.962C1091.8 421.63 1091.27 421.47 1090.75 421.47Z" fill="black"/>
<path d="M1327.86 901.67C1327.56 901.67 1327.25 901.658 1326.93 901.621C1324.37 901.375 1322.07 900.132 1320.46 898.14L1293.95 865.231C1290.8 861.319 1291.25 855.624 1294.97 852.253L1324.27 825.766C1326.2 824.019 1328.69 823.158 1331.27 823.343C1333.87 823.527 1336.2 824.721 1337.88 826.701L1365.93 860.126C1369.28 864.124 1368.75 870.103 1364.77 873.462L1333.94 899.419C1332.22 900.895 1330.09 901.67 1327.86 901.67ZM1296.63 854.086C1293.87 856.583 1293.54 860.79 1295.87 863.694L1322.38 896.602C1323.57 898.078 1325.27 899.001 1327.16 899.185C1329.06 899.37 1330.9 898.792 1332.35 897.574L1363.18 871.616C1366.13 869.131 1366.52 864.702 1364.04 861.738L1335.99 828.313C1334.76 826.837 1333.02 825.951 1331.1 825.828C1329.18 825.705 1327.33 826.332 1325.92 827.624L1296.63 854.086Z" fill="black"/>
<path d="M1183.04 843.961L1181.12 842.423L1194.94 825.09C1195.75 824.068 1195.47 822.998 1194.93 822.334C1194.39 821.67 1193.39 821.177 1192.22 821.768L1176.61 829.801C1174.57 830.847 1172.25 830.343 1170.83 828.559C1169.4 826.775 1169.45 824.401 1170.93 822.654L1184.81 806.255C1185.68 805.234 1185.39 804.139 1184.85 803.462C1184.3 802.786 1183.3 802.269 1182.12 802.897L1141.88 823.38L1140.76 821.19L1180.99 800.707C1183.01 799.637 1185.34 800.129 1186.77 801.912C1188.21 803.708 1188.17 806.083 1186.7 807.842L1172.81 824.241C1171.95 825.249 1172.22 826.344 1172.76 827.021C1173.3 827.698 1174.3 828.214 1175.48 827.611L1191.08 819.578C1193.08 818.545 1195.38 819.025 1196.81 820.759C1198.24 822.494 1198.25 824.856 1196.85 826.615L1183.04 843.961Z" fill="black"/>
<path d="M1250.02 869.469L1232.06 917.891L1234.37 918.746L1252.32 870.325L1250.02 869.469Z" fill="black"/>
<path d="M1278.19 879.988L1275.87 880.805L1296.58 939.651L1298.9 938.835L1278.19 879.988Z" fill="black"/>
<path d="M1277.33 920.726L1274.9 921.086L1279.17 950.015L1281.6 949.656L1277.33 920.726Z" fill="black"/>
<path d="M1249.65 909.573L1245.23 932.751L1247.64 933.212L1252.07 910.034L1249.65 909.573Z" fill="black"/>
<path d="M1052.74 444.934L1050.57 446.107L1072.9 487.237L1075.06 486.064L1052.74 444.934Z" fill="black"/>
<path d="M1052.88 466.791L1050.51 467.471L1057.41 491.449L1059.77 490.769L1052.88 466.791Z" fill="black"/>
<path d="M1041.75 448.833L1039.62 484.866L1042.07 485.012L1044.21 448.979L1041.75 448.833Z" fill="black"/>
<path d="M976.725 462.805L974.351 462.166L980.674 438.521C981.068 437.032 982.408 436.11 983.946 436.27C985.472 436.43 986.591 437.623 986.677 439.148L987.379 453.308C987.403 453.702 987.674 453.825 987.846 453.862C988.018 453.899 988.313 453.911 988.498 453.554L997.626 435.544L999.816 436.651L990.7 454.661C990.06 455.916 988.719 456.556 987.342 456.261C985.964 455.965 985.004 454.834 984.93 453.431L984.229 439.271C984.205 438.829 983.885 438.73 983.7 438.718C983.516 438.693 983.184 438.73 983.073 439.148L976.725 462.805Z" fill="black"/>
<path d="M1229.64 338.994L1229.26 341.424L1265.26 347.163L1265.65 344.733L1229.64 338.994Z" fill="black"/>
<path d="M1232.12 350.015L1231.22 352.307L1265.03 365.509L1265.92 363.217L1232.12 350.015Z" fill="black"/>
<path d="M1232.59 359.516L1230.73 361.121L1254.63 388.9L1256.5 387.295L1232.59 359.516Z" fill="black"/>
<path d="M1195.96 1019.09L1195.82 1019.08L1125.48 1011.04L1125.76 1008.59L1196.03 1016.62C1197.73 1016.6 1198.65 1015.43 1198.96 1014.35C1199.27 1013.25 1199.06 1011.75 1197.56 1010.86L1116.61 972.653C1114.09 971.152 1113.14 968.335 1114.2 965.727C1115.26 963.119 1117.92 961.754 1120.65 962.418L1184.85 976.701C1186.7 977.143 1187.91 976.061 1188.41 974.991C1188.89 973.945 1188.94 972.358 1187.51 971.251L1133.72 944.666L1134.82 942.464L1188.89 969.209C1191.42 971.066 1191.59 973.97 1190.65 976.024C1189.7 978.078 1187.37 979.825 1184.31 979.1L1120.11 964.817C1118.17 964.349 1116.96 965.518 1116.49 966.662C1116.02 967.794 1116.08 969.479 1117.77 970.488L1198.72 1008.7C1201.03 1010.08 1202.01 1012.52 1201.34 1015.01C1200.63 1017.49 1198.53 1019.09 1195.96 1019.09Z" fill="black"/>
<path d="M590.132 786.965C589.874 786.965 589.615 786.953 589.357 786.916C587.819 786.694 586.454 785.821 585.605 784.517L579.159 774.638C577.547 772.178 578.224 768.832 580.672 767.196L589.271 761.426C591.731 759.777 595.077 760.429 596.738 762.865L602.705 771.6C604.267 773.888 603.849 776.963 601.745 778.76L593.638 785.673C592.654 786.522 591.411 786.965 590.132 786.965ZM592.285 762.988C591.719 762.988 591.153 763.148 590.649 763.48L582.049 769.25C580.721 770.148 580.352 771.956 581.225 773.31L587.672 783.188C588.139 783.902 588.877 784.369 589.714 784.492C590.563 784.615 591.399 784.369 592.039 783.816L600.146 776.902C601.29 775.918 601.524 774.245 600.663 773.002L594.696 764.268C594.155 763.431 593.22 762.988 592.285 762.988Z" fill="black"/>
<path d="M613.453 787.9L599.984 802.017L601.764 803.715L615.233 789.599L613.453 787.9Z" fill="black"/>
<path d="M609.35 800.839L605.76 808.095L607.965 809.186L611.555 801.931L609.35 800.839Z" fill="black"/>
<path d="M619.192 787.636L614.171 811.596L616.579 812.1L621.6 788.141L619.192 787.636Z" fill="black"/>
<path d="M647.201 806.981C647.139 806.981 647.09 806.981 647.029 806.981C645.392 806.907 644.002 805.862 643.486 804.312L641.296 797.693L643.633 796.918L645.823 803.537C646.118 804.41 646.893 804.521 647.127 804.521C647.361 804.521 648.148 804.496 648.517 803.647L650.645 798.665C651.162 797.459 652.232 796.598 653.524 796.365C654.816 796.131 656.12 796.537 657.03 797.472L663.464 804.066C664.03 804.644 664.719 804.582 665.187 804.324C665.654 804.066 666.085 803.512 665.9 802.725L662.911 789.93L665.31 789.377L668.299 802.171C668.705 803.893 667.93 805.628 666.38 806.477C664.817 807.326 662.948 807.043 661.705 805.776L655.271 799.182C654.927 798.825 654.447 798.677 653.979 798.776C653.5 798.862 653.106 799.182 652.921 799.625L650.793 804.607C650.166 806.071 648.776 806.981 647.201 806.981Z" fill="black"/>
<path d="M488.613 708.35L470.995 714.396L471.794 716.723L489.411 710.677L488.613 708.35Z" fill="black"/>
<path d="M483.739 716.193L474.268 724.082L475.842 725.973L485.314 718.084L483.739 716.193Z" fill="black"/>
<path d="M490.76 716.67L483.396 735.613L485.69 736.505L493.053 717.562L490.76 716.67Z" fill="black"/>
<path d="M424.767 661.472C424.496 661.472 424.213 661.447 423.943 661.386L421.814 660.918L422.343 658.52L424.472 658.987C424.865 659.073 425.271 658.987 425.591 658.766C425.923 658.532 426.133 658.187 426.182 657.781L426.403 656.059C426.551 654.964 427.154 653.98 428.064 653.353C428.974 652.725 430.118 652.528 431.189 652.787L435.421 653.833C435.876 653.943 436.343 653.833 436.688 653.525C437.044 653.217 437.217 652.775 437.18 652.307L436.971 649.945C436.86 648.69 437.34 647.485 438.287 646.66C439.234 645.836 440.489 645.516 441.719 645.812L444.487 646.464C444.942 646.574 445.398 646.451 445.754 646.144C446.099 645.836 446.283 645.393 446.234 644.926C446.099 643.573 446.665 642.281 447.747 641.457C448.83 640.632 450.232 640.436 451.499 640.928L454.673 642.146L453.788 644.446L450.614 643.228C450.146 643.044 449.642 643.117 449.236 643.425C448.83 643.733 448.633 644.2 448.682 644.704C448.805 645.971 448.325 647.165 447.378 648.001C446.431 648.838 445.164 649.158 443.934 648.862L441.166 648.21C440.711 648.112 440.255 648.223 439.899 648.518C439.554 648.826 439.37 649.256 439.419 649.724L439.628 652.086C439.739 653.34 439.247 654.571 438.287 655.383C437.327 656.194 436.036 656.514 434.818 656.207L430.586 655.161C430.192 655.063 429.786 655.137 429.442 655.37C429.097 655.604 428.888 655.948 428.827 656.367L428.605 658.089C428.458 659.159 427.879 660.131 426.981 660.759C426.342 661.226 425.567 661.472 424.767 661.472Z" fill="black"/>
<path d="M1227.88 260.301C1227.85 260.301 1227.82 260.301 1227.79 260.301C1226.53 260.264 1225.45 259.526 1224.96 258.381L1222.96 253.756C1222.79 253.362 1222.45 253.313 1222.3 253.313C1222.3 253.313 1222.3 253.313 1222.29 253.313C1222.14 253.313 1221.78 253.362 1221.62 253.768L1219.4 259.329L1217.11 258.418L1219.33 252.858C1219.81 251.652 1220.96 250.877 1222.25 250.853C1222.26 250.853 1222.27 250.853 1222.29 250.853C1223.57 250.853 1224.71 251.603 1225.21 252.772L1227.21 257.397C1227.37 257.779 1227.71 257.828 1227.86 257.84C1227.99 257.84 1228.34 257.816 1228.52 257.434L1229.96 254.556C1230.44 253.596 1231.37 252.944 1232.42 252.821C1233.49 252.686 1234.54 253.092 1235.23 253.916L1237.6 256.684C1237.86 256.979 1238.18 256.942 1238.3 256.918C1238.43 256.893 1238.73 256.795 1238.85 256.413L1240.28 251.603C1240.6 250.545 1241.43 249.733 1242.51 249.438C1243.58 249.143 1244.71 249.426 1245.51 250.188L1250.16 254.543C1250.43 254.802 1250.75 254.752 1250.88 254.703C1251 254.666 1251.28 254.543 1251.37 254.174L1252.28 250.237C1252.54 249.143 1253.31 248.281 1254.38 247.925C1255.45 247.568 1256.6 247.802 1257.45 248.528L1260.78 251.369C1261.08 251.615 1261.38 251.542 1261.51 251.492C1261.63 251.443 1261.91 251.308 1261.97 250.926L1262.6 247.027C1262.79 245.87 1263.6 244.911 1264.7 244.529C1265.82 244.148 1267.04 244.406 1267.9 245.206C1268.22 245.501 1268.55 245.39 1268.69 245.341C1268.83 245.28 1269.12 245.108 1269.12 244.677V241.872H1271.58V244.677C1271.58 245.969 1270.86 247.076 1269.67 247.593C1268.49 248.109 1267.18 247.888 1266.23 247.014C1265.95 246.744 1265.63 246.818 1265.5 246.867C1265.38 246.904 1265.09 247.051 1265.02 247.433L1264.4 251.332C1264.21 252.476 1263.45 253.411 1262.35 253.817C1261.26 254.223 1260.08 254.014 1259.19 253.251L1255.86 250.41C1255.58 250.176 1255.28 250.237 1255.16 250.274C1255.05 250.311 1254.76 250.447 1254.68 250.803L1253.77 254.74C1253.51 255.86 1252.7 256.733 1251.59 257.077C1250.48 257.41 1249.33 257.139 1248.48 256.352L1243.83 251.997C1243.56 251.751 1243.26 251.8 1243.14 251.824C1243.02 251.861 1242.73 251.972 1242.63 252.317L1241.19 257.127C1240.86 258.246 1239.94 259.083 1238.81 259.329C1237.66 259.575 1236.48 259.169 1235.73 258.283L1233.36 255.515C1233.12 255.244 1232.84 255.257 1232.72 255.269C1232.61 255.281 1232.31 255.355 1232.15 255.663L1230.71 258.541C1230.18 259.624 1229.1 260.301 1227.88 260.301Z" fill="black"/>
<path d="M1224.28 241.598L1223.04 243.724L1234.78 250.572L1236.02 248.447L1224.28 241.598Z" fill="black"/>
<path d="M1235.34 237.073L1234.14 239.224L1249.4 247.701L1250.6 245.55L1235.34 237.073Z" fill="black"/>
<path d="M1249.29 235.561L1248.24 237.784L1260.8 243.742L1261.85 241.519L1249.29 235.561Z" fill="black"/>
<path d="M1122.29 1194.84L1120.03 1193.88L1123.8 1185.02C1124.71 1182.88 1126.5 1181.3 1128.74 1180.66C1130.98 1180.02 1133.34 1180.42 1135.25 1181.76L1139.16 1184.52C1140.53 1185.48 1142.21 1185.74 1143.8 1185.2C1145.39 1184.67 1146.58 1183.45 1147.1 1181.86L1147.77 1179.76C1148.54 1177.36 1150.44 1175.5 1152.84 1174.78C1155.24 1174.05 1157.86 1174.55 1159.82 1176.12L1163.79 1179.28C1165.16 1180.36 1166.89 1180.69 1168.55 1180.18C1170.21 1179.67 1171.47 1178.42 1171.98 1176.76L1173 1173.47C1173.75 1171.06 1175.56 1169.23 1177.97 1168.47C1180.39 1167.69 1182.92 1168.13 1184.94 1169.66L1189.5 1173.12C1190.88 1174.16 1192.61 1174.46 1194.26 1173.91C1195.91 1173.37 1197.13 1172.11 1197.62 1170.45L1199.33 1164.63C1200.08 1162.08 1202.05 1160.14 1204.61 1159.41C1207.15 1158.7 1209.86 1159.34 1211.83 1161.12L1215.5 1164.45C1216.86 1165.7 1218.74 1166.13 1220.51 1165.57C1222.29 1165.03 1223.6 1163.63 1224.05 1161.83C1224.7 1159.15 1226.67 1157.07 1229.32 1156.3C1231.97 1155.52 1234.75 1156.19 1236.75 1158.09L1242.46 1163.52L1240.76 1165.3L1235.06 1159.88C1233.69 1158.59 1231.81 1158.13 1230.01 1158.66C1228.22 1159.19 1226.87 1160.59 1226.43 1162.42C1225.79 1165.08 1223.85 1167.14 1221.24 1167.94C1218.63 1168.74 1215.86 1168.12 1213.85 1166.28L1210.18 1162.94C1208.85 1161.72 1207.02 1161.29 1205.28 1161.79C1203.55 1162.28 1202.21 1163.59 1201.7 1165.32L1199.99 1171.13C1199.28 1173.55 1197.44 1175.45 1195.05 1176.24C1192.65 1177.03 1190.03 1176.58 1188.02 1175.07L1183.46 1171.61C1182.1 1170.58 1180.37 1170.29 1178.74 1170.8C1177.1 1171.32 1175.87 1172.56 1175.37 1174.2L1174.34 1177.48C1173.59 1179.89 1171.7 1181.78 1169.29 1182.53C1166.88 1183.26 1164.26 1182.77 1162.28 1181.2L1158.3 1178.04C1156.95 1176.95 1155.23 1176.62 1153.57 1177.13C1151.91 1177.63 1150.65 1178.86 1150.12 1180.51L1149.45 1182.61C1148.7 1184.96 1146.92 1186.75 1144.59 1187.53C1142.25 1188.32 1139.76 1187.95 1137.75 1186.52L1133.83 1183.77C1132.54 1182.86 1130.94 1182.59 1129.42 1183.02C1127.9 1183.45 1126.67 1184.53 1126.06 1185.98L1122.29 1194.84Z" fill="black"/>
<path d="M1041.9 1133.88H1039.44V1122.09C1039.44 1120.46 1038.6 1119.01 1037.21 1118.19C1035.82 1117.36 1034.14 1117.34 1032.72 1118.11L1027.52 1120.98C1025.33 1122.18 1022.73 1122.15 1020.59 1120.87C1018.44 1119.6 1017.16 1117.35 1017.16 1114.85V1110.79C1017.16 1109.25 1016.42 1107.88 1015.14 1107.02C1013.86 1106.15 1012.3 1106.01 1010.89 1106.61L1004.21 1109.4C1002.04 1110.31 999.582 1110.08 997.638 1108.78C995.682 1107.47 994.513 1105.29 994.513 1102.96V1101.62C994.513 1100.08 993.787 1098.71 992.508 1097.85C991.229 1096.99 989.679 1096.83 988.264 1097.42L981.867 1100.04C979.702 1100.93 977.253 1100.68 975.322 1099.38C973.378 1098.07 972.222 1095.91 972.222 1093.57C972.222 1092.02 971.484 1090.64 970.192 1089.79C968.9 1088.93 967.338 1088.8 965.923 1089.4L960.953 1091.5C959.034 1092.31 956.881 1092.23 955.036 1091.28C953.191 1090.33 951.862 1088.64 951.407 1086.61L950.767 1083.8C950.46 1082.47 949.598 1081.37 948.393 1080.76C947.175 1080.15 945.772 1080.11 944.53 1080.66L935.697 1084.54L934.713 1082.29L943.546 1078.41C945.465 1077.58 947.642 1077.63 949.512 1078.57C951.382 1079.52 952.723 1081.23 953.191 1083.27L953.83 1086.08C954.126 1087.39 954.987 1088.49 956.18 1089.1C957.373 1089.72 958.776 1089.77 960.018 1089.25L964.988 1087.15C967.153 1086.23 969.614 1086.46 971.582 1087.76C973.538 1089.07 974.707 1091.24 974.707 1093.59C974.707 1095.13 975.433 1096.5 976.712 1097.36C977.992 1098.22 979.529 1098.37 980.956 1097.79L987.353 1095.17C989.519 1094.28 991.967 1094.53 993.898 1095.83C995.842 1097.14 996.998 1099.3 996.998 1101.64V1102.98C996.998 1104.52 997.736 1105.9 999.016 1106.76C1000.3 1107.62 1001.86 1107.77 1003.27 1107.16L1009.95 1104.37C1012.12 1103.47 1014.58 1103.71 1016.52 1105C1018.48 1106.3 1019.63 1108.48 1019.63 1110.82V1114.88C1019.63 1116.5 1020.47 1117.95 1021.86 1118.78C1023.25 1119.6 1024.94 1119.63 1026.35 1118.85L1031.55 1115.98C1033.74 1114.78 1036.34 1114.82 1038.48 1116.09C1040.63 1117.36 1041.91 1119.61 1041.91 1122.11V1133.88H1041.9Z" fill="black"/>
<path d="M1318.54 756.727C1307.17 775.18 1276.91 784.849 1262.17 765.018C1245.8 742.973 1257.47 696.09 1291.55 694.121C1299.32 693.666 1307.07 696.213 1313.2 701.281C1328.75 714.161 1331.28 736.035 1318.54 756.727Z" fill="black"/>
<path d="M1279.68 732.295C1275.49 745.224 1270.7 759.519 1264.68 752.187C1260.94 747.623 1258.66 736.65 1261.33 726.217C1263.44 718 1269.32 710.114 1275.16 705.981C1278.19 703.84 1281.25 703.348 1283.7 704.652C1289.95 707.961 1284.36 717.791 1279.68 732.295Z" fill="#74BAAB"/>
<path d="M1043.43 373.185C1037.12 379.939 1030.02 387.332 1027.1 379.631C1025.29 374.846 1026.14 366.419 1030.69 360.649C1034.27 356.097 1040.7 353.514 1046.19 353.428C1049.05 353.391 1051.52 354.473 1053.12 356.479C1057.16 361.584 1050.5 365.607 1043.43 373.185Z" fill="#74BAAB"/>
<path d="M631.097 744.056C631.183 739.639 631.355 734.743 634.739 736.539C636.842 737.659 640.89 746.529 636.252 751.954C635.378 752.975 634.087 753.295 632.918 753.086C629.953 752.569 630.999 749.001 631.097 744.056Z" fill="#74BAAB"/>
<path d="M719.611 858.822C720.14 857.677 719.193 856.558 716.831 855.685C712.119 853.95 702.954 852.707 685.177 853.938C668.791 855.069 660.561 858.526 656.44 861.491C654.238 863.078 654.41 864.271 656.427 865.169C681.204 869.377 706.632 866.08 719.611 858.822Z" fill="black"/>
<path d="M1150.26 753.467C1148.2 744.302 1142.56 716.143 1142.5 715.86L1144.91 715.38C1144.97 715.663 1150.6 743.785 1152.66 752.926L1150.26 753.467Z" fill="black"/>
<path d="M1175.19 756.456C1172.66 752.778 1170.45 747.882 1169.12 743.035C1168.65 741.337 1168.22 739.688 1167.81 738.101C1165.73 730.142 1164.1 723.843 1160.12 720.214L1161.78 718.394C1166.3 722.515 1168.02 729.121 1170.2 737.474C1170.61 739.049 1171.04 740.685 1171.5 742.37C1172.77 746.971 1174.85 751.597 1177.24 755.054L1175.19 756.456Z" fill="black"/>
<path d="M1186.87 757.022L1184.41 756.948C1184.47 755.017 1184.28 752.495 1184.1 749.825C1183.92 747.082 1183.69 743.982 1183.69 740.98C1183.69 735.506 1185.05 730.167 1187.31 726.673L1189.38 728.014C1187.36 731.126 1186.15 735.961 1186.15 740.98C1186.15 743.883 1186.35 746.824 1186.55 749.653C1186.75 752.384 1186.93 754.968 1186.87 757.022Z" fill="black"/>
<path d="M1266.57 854.873C1263.97 854.873 1261.39 853.778 1259.59 851.675L1239.1 827.735L1240.97 826.135L1261.46 850.075C1263.83 852.856 1268.05 853.225 1270.87 850.887L1331.89 795.319C1335.23 792.452 1339 790.054 1343.09 788.184L1344.11 790.423C1340.23 792.194 1336.66 794.47 1333.51 797.164L1272.48 852.745C1270.76 854.172 1268.65 854.873 1266.57 854.873Z" fill="black"/>
<path d="M1270.63 961.888C1260.12 961.888 1249.03 957.349 1239.46 945.219L1215.89 919.126L1217.71 917.478L1241.34 943.632C1258.64 965.542 1281.09 961.199 1295.05 950.853C1306.22 942.574 1321.77 929.337 1341.27 911.499L1342.93 913.32C1323.37 931.207 1307.75 944.506 1296.52 952.834C1289.41 958.087 1280.25 961.888 1270.63 961.888Z" fill="black"/>
<path d="M1117.46 760.799C1116.09 758.4 1114.96 756.001 1113.79 752.999L1116.09 752.113C1117.23 755.029 1118.27 757.268 1119.6 759.581L1117.46 760.799Z" fill="black"/>
<path d="M1131.95 756.493C1129.96 752.765 1126.22 745.04 1123.56 735.223L1125.94 734.583C1128.52 744.166 1132.17 751.695 1134.12 755.324L1131.95 756.493Z" fill="black"/>
<path d="M1301.76 792.612C1281.86 792.612 1263.61 781.75 1254.11 764.256L1256.28 763.075C1265.34 779.769 1282.78 790.152 1301.76 790.152V792.612Z" fill="black"/>
<path d="M968.249 422.393C966.293 422.393 963.894 421.335 961.347 419.293C958.542 417.054 954.2 413.548 950.645 410.694L952.195 408.775C955.75 411.641 960.08 415.135 962.885 417.374C965.505 419.477 968.052 420.412 969.221 419.699C970.279 419.059 970.525 416.882 969.922 413.708C969.196 409.919 969.381 406.88 970.488 404.653L972.69 405.748C972.099 406.942 971.558 409.205 972.333 413.24C973.182 417.669 972.567 420.548 970.488 421.802C969.836 422.196 969.073 422.393 968.249 422.393Z" fill="black"/>
<path d="M1058.27 435.827L1056.52 434.104L1089.46 400.372C1101.02 388.525 1119.77 387.885 1132.12 398.908L1130.49 400.741C1119.12 390.592 1101.87 391.182 1091.23 402.082L1058.27 435.827Z" fill="black"/>
<path d="M1131.68 441.998L1098.25 475.586L1100 477.322L1133.42 443.733L1131.68 441.998Z" fill="black"/>
<path d="M602.655 761.045L595.151 749.936C592.506 746.442 588.582 744.166 584.165 743.588C579.749 743.022 575.382 744.216 571.876 746.959L570.362 745.028C574.397 741.866 579.404 740.488 584.485 741.152C589.566 741.817 594.056 744.425 597.156 748.509L604.697 759.667L602.655 761.045Z" fill="black"/>
<path d="M643.731 820.577L642.273 849.229L644.731 849.354L646.188 820.702L643.731 820.577Z" fill="black"/>
<path d="M717.775 785.449L715.389 786.051L727.415 833.768L729.801 833.167L717.775 785.449Z" fill="black"/>
</g>
<defs>
<clipPath id="clip0_23_0">
<rect width="1840" height="1380" fill="white"/>
</clipPath>
</defs>
</svg>
