<svg width="1438" height="600" viewBox="0 0 1438 600" fill="none" xmlns="http://www.w3.org/2000/svg">
<g clip-path="url(#clip0_223:230)">
<path d="M-2 346L24.72 355.7C51.28 365.3 104.72 384.7 158 396.7C211.28 408.7 264.72 413.3 318 405.5C371.28 397.7 424.72 377.3 478 377.7C531.28 378 584.72 399 638 400.5C691.28 402 744.72 384 798 387.7C851.28 391.3 904.72 416.7 958 422.5C1011.28 428.3 1064.72 414.7 1118 403.8C1171.28 393 1224.72 385 1278 385C1331.28 385 1384.72 393 1411.28 397L1438 401V601H1411.28C1384.72 601 1331.28 601 1278 601C1224.72 601 1171.28 601 1118 601C1064.72 601 1011.28 601 958 601C904.72 601 851.28 601 798 601C744.72 601 691.28 601 638 601C584.72 601 531.28 601 478 601C424.72 601 371.28 601 318 601C264.72 601 211.28 601 158 601C104.72 601 51.28 601 24.72 601H-2V346Z" fill="#FFF8E5"/>
<path d="M-2 473L24.72 467.5C51.28 462 104.72 451 158 443.8C211.28 436.7 264.72 433.3 318 443.2C371.28 453 424.72 476 478 490.2C531.28 504.3 584.72 509.7 638 507C691.28 504.3 744.72 493.7 798 490C851.28 486.3 904.72 489.7 958 485.7C1011.28 481.7 1064.72 470.3 1118 460.5C1171.28 450.7 1224.72 442.3 1278 445.5C1331.28 448.7 1384.72 463.3 1411.28 470.7L1438 478V601H1411.28C1384.72 601 1331.28 601 1278 601C1224.72 601 1171.28 601 1118 601C1064.72 601 1011.28 601 958 601C904.72 601 851.28 601 798 601C744.72 601 691.28 601 638 601C584.72 601 531.28 601 478 601C424.72 601 371.28 601 318 601C264.72 601 211.28 601 158 601C104.72 601 51.28 601 24.72 601H-2V473Z" fill="#A8CCA9"/>
<path d="M-2 534L24.72 536.5C51.28 539 104.72 544 158 547C211.28 550 264.72 551 318 542.3C371.28 533.7 424.72 515.3 478 514.3C531.28 513.3 584.72 529.7 638 531C691.28 532.3 744.72 518.7 798 519.8C851.28 521 904.72 537 958 545C1011.28 553 1064.72 553 1118 541.7C1171.28 530.3 1224.72 507.7 1278 504.5C1331.28 501.3 1384.72 517.7 1411.28 525.8L1438 534V601H1411.28C1384.72 601 1331.28 601 1278 601C1224.72 601 1171.28 601 1118 601C1064.72 601 1011.28 601 958 601C904.72 601 851.28 601 798 601C744.72 601 691.28 601 638 601C584.72 601 531.28 601 478 601C424.72 601 371.28 601 318 601C264.72 601 211.28 601 158 601C104.72 601 51.28 601 24.72 601H-2V534Z" fill="#00A19D"/>
</g>
<defs>
<clipPath id="clip0_223:230">
<rect width="1440" height="600" fill="white" transform="translate(-2)"/>
</clipPath>
</defs>
</svg>
