<svg width="1440" height="600" viewBox="0 0 1440 600" fill="none" xmlns="http://www.w3.org/2000/svg">
<g clip-path="url(#clip0_402_345)">
<g filter="url(#filter0_d_402_345)">
<path d="M0 346L26.72 355.7C53.28 365.3 106.72 384.7 160 396.7C213.28 408.7 266.72 413.3 320 405.5C373.28 397.7 426.72 377.3 480 377.7C533.28 378 586.72 399 640 400.5C693.28 402 746.72 384 800 387.7C853.28 391.3 906.72 416.7 960 422.5C1013.28 428.3 1066.72 414.7 1120 403.8C1173.28 393 1226.72 385 1280 385C1333.28 385 1386.72 393 1413.28 397L1440 401V601H1413.28C1386.72 601 1333.28 601 1280 601C1226.72 601 1173.28 601 1120 601C1066.72 601 1013.28 601 960 601C906.72 601 853.28 601 800 601C746.72 601 693.28 601 640 601C586.72 601 533.28 601 480 601C426.72 601 373.28 601 320 601C266.72 601 213.28 601 160 601C106.72 601 53.28 601 26.72 601H0V346Z" fill="#FFF8E5"/>
</g>
<mask id="mask0_402_345" style="mask-type:alpha" maskUnits="userSpaceOnUse" x="0" y="346" width="1440" height="255">
<path d="M0 346L26.72 355.7C53.28 365.3 106.72 384.7 160 396.7C213.28 408.7 266.72 413.3 320 405.5C373.28 397.7 426.72 377.3 480 377.7C533.28 378 586.72 399 640 400.5C693.28 402 746.72 384 800 387.7C853.28 391.3 906.72 416.7 960 422.5C1013.28 428.3 1066.72 414.7 1120 403.8C1173.28 393 1226.72 385 1280 385C1333.28 385 1386.72 393 1413.28 397L1440 401V601H1413.28C1386.72 601 1333.28 601 1280 601C1226.72 601 1173.28 601 1120 601C1066.72 601 1013.28 601 960 601C906.72 601 853.28 601 800 601C746.72 601 693.28 601 640 601C586.72 601 533.28 601 480 601C426.72 601 373.28 601 320 601C266.72 601 213.28 601 160 601C106.72 601 53.28 601 26.72 601H0V346Z" fill="#FFF8E5"/>
</mask>
<g mask="url(#mask0_402_345)">
<g clip-path="url(#clip1_402_345)">
<path d="M136.642 635.066L136.457 671.733L172.095 671.913L186.022 658.983L199.222 672.049L236.456 672.237L236.641 635.571L224.195 624.675L236.754 613.071L236.96 572.239L199.727 572.051L186.4 583.984L172.599 571.914L136.962 571.734L136.755 612.567L150.196 624.301L136.642 635.066Z" stroke="#EC255A" stroke-width="5"/>
<path d="M137.354 494.068L137.168 530.735L172.806 530.914L186.733 517.985L199.934 531.051L237.167 531.239L237.352 494.573L224.907 483.677L237.466 472.073L237.672 431.241L200.438 431.053L187.112 442.986L173.311 430.916L137.673 430.736L137.467 471.569L150.908 483.303L137.354 494.068Z" stroke="#EC255A" stroke-width="5"/>
<path d="M67.0012 563.714L66.8162 600.38L102.454 600.56L116.381 587.63L129.581 600.697L166.815 600.885L167 564.219L154.555 553.323L167.114 541.719L167.32 500.886L130.086 500.698L116.76 512.631L102.959 500.562L67.3209 500.382L67.1148 541.214L80.5557 552.949L67.0012 563.714Z" stroke="#EC255A" stroke-width="5"/>
<path d="M23.5243 536.829L23.9351 500.165L-11.701 499.765L-25.7075 512.609L-38.827 499.461L-76.0587 499.044L-76.4694 535.709L-64.0916 546.681L-76.7215 558.207L-77.1789 599.038L-39.9472 599.455L-26.5476 587.605L-12.8212 599.759L22.8148 600.158L23.2723 559.328L9.9038 547.51L23.5243 536.829Z" stroke="#EC255A" stroke-width="5"/>
<path d="M26.2357 395.841L26.6465 359.177L-8.98958 358.777L-22.996 371.621L-36.1155 358.473L-73.3472 358.056L-73.758 394.721L-61.3801 405.693L-74.01 417.219L-74.4675 458.05L-37.2358 458.467L-23.8362 446.616L-10.1098 458.771L25.5263 459.17L25.9837 418.339L12.6152 406.522L26.2357 395.841Z" stroke="#EC255A" stroke-width="5"/>
<path d="M95.7265 608.194L96.1372 571.53L60.5011 571.131L46.4947 583.975L33.3752 570.827L-3.85652 570.41L-4.26727 607.074L8.11058 618.047L-4.51932 629.573L-4.97675 670.404L32.255 670.821L45.6545 658.97L59.3809 671.125L95.017 671.524L95.4744 630.693L82.1059 618.876L95.7265 608.194Z" stroke="#EC255A" stroke-width="5"/>
<path d="M97.306 467.203L97.7168 430.539L62.0807 430.14L48.0743 442.983L34.9548 429.836L-2.27693 429.419L-2.68768 466.083L9.69017 477.056L-2.93973 488.582L-3.39716 529.412L33.8345 529.829L47.2341 517.979L60.9605 530.133L96.5966 530.533L97.054 489.702L83.6855 477.885L97.306 467.203Z" stroke="#EC255A" stroke-width="5"/>
<path d="M168.244 394.558L168.655 357.893L133.019 357.494L119.012 370.338L105.893 357.19L68.6611 356.773L68.2503 393.437L80.6282 404.41L67.9983 415.936L67.5408 456.767L104.773 457.184L118.172 445.333L131.898 457.488L167.535 457.887L167.992 417.056L154.624 405.239L168.244 394.558Z" stroke="#EC255A" stroke-width="5"/>
<path d="M137.075 351.065L136.89 387.731L172.528 387.911L186.455 374.981L199.655 388.048L236.889 388.236L237.074 351.57L224.629 340.673L237.187 329.07L237.394 288.237L200.16 288.049L186.834 299.982L173.033 287.912L137.395 287.732L137.189 328.565L150.63 340.3L137.075 351.065Z" stroke="#EC255A" stroke-width="5"/>
<path d="M207.984 567.426L207.799 604.092L243.437 604.272L257.364 591.342L270.564 604.409L307.798 604.597L307.983 567.931L295.538 557.034L308.096 545.431L308.303 504.598L271.069 504.41L257.743 516.343L243.942 504.273L208.304 504.093L208.098 544.926L221.539 556.661L207.984 567.426Z" stroke="#EC255A" stroke-width="5"/>
<path d="M207.706 424.422L207.521 461.089L243.159 461.268L257.086 448.339L270.286 461.405L307.52 461.593L307.705 424.927L295.26 414.031L307.818 402.427L308.024 361.595L270.791 361.407L257.465 373.34L243.664 361.27L208.026 361.09L207.82 401.923L221.261 413.657L207.706 424.422Z" stroke="#EC255A" stroke-width="5"/>
<path d="M276.64 635.773L276.455 672.439L312.093 672.619L326.02 659.689L339.22 672.756L376.454 672.944L376.639 636.278L364.194 625.382L376.752 613.778L376.959 572.945L339.725 572.758L326.399 584.69L312.598 572.621L276.96 572.441L276.754 613.274L290.195 625.008L276.64 635.773Z" stroke="#EC255A" stroke-width="5"/>
<path d="M277.352 494.775L277.167 531.441L312.805 531.621L326.732 518.691L339.932 531.758L377.165 531.946L377.351 495.28L364.905 484.383L377.464 472.78L377.67 431.947L340.437 431.759L327.11 443.692L313.309 431.622L277.671 431.442L277.465 472.275L290.906 484.01L277.352 494.775Z" stroke="#EC255A" stroke-width="5"/>
<path d="M277.073 351.772L276.888 388.438L312.526 388.618L326.453 375.688L339.654 388.755L376.887 388.943L377.072 352.277L364.627 341.38L377.186 329.777L377.392 288.944L340.158 288.756L326.832 300.689L313.031 288.619L277.393 288.439L277.187 329.272L290.628 341.007L277.073 351.772Z" stroke="#EC255A" stroke-width="5"/>
<path d="M346.992 566.127L346.807 602.793L382.445 602.973L396.372 590.043L409.573 603.11L446.806 603.298L446.991 566.632L434.546 555.736L447.105 544.132L447.311 503.299L410.077 503.112L396.751 515.044L382.95 502.975L347.312 502.795L347.106 543.628L360.547 555.362L346.992 566.127Z" stroke="#EC255A" stroke-width="5"/>
<path d="M346.714 423.124L346.529 459.79L382.167 459.97L396.094 447.04L409.294 460.107L446.528 460.295L446.713 423.629L434.268 412.733L446.827 401.129L447.033 360.296L409.799 360.108L396.473 372.041L382.672 359.971L347.034 359.792L346.828 400.624L360.269 412.359L346.714 423.124Z" stroke="#EC255A" stroke-width="5"/>
<path d="M418.648 634.49L418.463 671.156L454.101 671.336L468.028 658.406L481.229 671.473L518.462 671.661L518.647 634.995L506.202 624.098L518.761 612.495L518.967 571.662L481.733 571.474L468.407 583.407L454.606 571.337L418.968 571.157L418.762 611.99L432.203 623.725L418.648 634.49Z" stroke="#EC255A" stroke-width="5"/>
<path d="M419.36 493.492L419.175 530.158L454.813 530.338L468.74 517.408L481.94 530.475L519.174 530.663L519.359 493.996L506.914 483.1L519.472 471.497L519.679 430.664L482.445 430.476L469.119 442.409L455.318 430.339L419.68 430.159L419.474 470.992L432.915 482.727L419.36 493.492Z" stroke="#EC255A" stroke-width="5"/>
<path d="M419.082 350.489L418.897 387.155L454.535 387.335L468.462 374.405L481.662 387.472L518.895 387.66L519.081 350.993L506.635 340.097L519.194 328.494L519.4 287.661L482.167 287.473L468.84 299.406L455.039 287.336L419.401 287.156L419.195 327.989L432.636 339.724L419.082 350.489Z" stroke="#EC255A" stroke-width="5"/>
<path d="M489.016 561.844L488.831 598.51L524.469 598.69L538.396 585.76L551.596 598.827L588.83 599.015L589.015 562.349L576.569 551.452L589.128 539.849L589.334 499.016L552.101 498.828L538.774 510.761L524.973 498.691L489.336 498.512L489.129 539.344L502.57 551.079L489.016 561.844Z" stroke="#EC255A" stroke-width="5"/>
<path d="M488.738 418.841L488.553 455.507L524.191 455.687L538.118 442.757L551.318 455.824L588.551 456.012L588.737 419.346L576.291 408.449L588.85 396.846L589.056 356.013L551.823 355.825L538.496 367.758L524.695 355.688L489.057 355.508L488.851 396.341L502.292 408.076L488.738 418.841Z" stroke="#EC255A" stroke-width="5"/>
<path d="M558.667 631.197L558.482 667.863L594.12 668.043L608.047 655.113L621.247 668.18L658.48 668.368L658.665 631.701L646.22 620.805L658.779 609.202L658.985 568.369L621.752 568.181L608.425 580.114L594.624 568.044L558.986 567.864L558.78 608.697L572.221 620.432L558.667 631.197Z" stroke="#EC255A" stroke-width="5"/>
<path d="M559.378 490.198L559.193 526.865L594.831 527.044L608.758 514.115L621.959 527.181L659.192 527.369L659.377 490.703L646.932 479.807L659.491 468.203L659.697 427.37L622.463 427.183L609.137 439.115L595.336 427.046L559.698 426.866L559.492 467.699L572.933 479.433L559.378 490.198Z" stroke="#EC255A" stroke-width="5"/>
<path d="M559.1 347.195L558.915 383.861L594.553 384.041L608.48 371.111L621.68 384.178L658.914 384.366L659.099 347.7L646.654 336.804L659.213 325.2L659.419 284.367L622.185 284.179L608.859 296.112L595.058 284.042L559.42 283.863L559.214 324.695L572.655 336.43L559.1 347.195Z" stroke="#EC255A" stroke-width="5"/>
<path d="M558.667 631.197L558.482 667.863L594.12 668.043L608.047 655.113L621.247 668.18L658.48 668.368L658.665 631.701L646.22 620.805L658.779 609.202L658.985 568.369L621.752 568.181L608.425 580.114L594.624 568.044L558.986 567.864L558.78 608.697L572.221 620.432L558.667 631.197Z" stroke="#EC255A" stroke-width="5"/>
<path d="M559.378 490.198L559.193 526.865L594.831 527.044L608.758 514.115L621.959 527.181L659.192 527.369L659.377 490.703L646.932 479.807L659.491 468.203L659.697 427.37L622.463 427.183L609.137 439.115L595.336 427.046L559.698 426.866L559.492 467.699L572.933 479.433L559.378 490.198Z" stroke="#EC255A" stroke-width="5"/>
<path d="M559.1 347.195L558.915 383.861L594.553 384.041L608.48 371.111L621.68 384.178L658.914 384.366L659.099 347.7L646.654 336.804L659.213 325.2L659.419 284.367L622.185 284.179L608.859 296.112L595.058 284.042L559.42 283.863L559.214 324.695L572.655 336.43L559.1 347.195Z" stroke="#EC255A" stroke-width="5"/>
<path d="M631.014 562.561L630.829 599.227L666.467 599.407L680.394 586.477L693.594 599.544L730.828 599.732L731.013 563.066L718.568 552.169L731.126 540.566L731.333 499.733L694.099 499.545L680.773 511.478L666.972 499.408L631.334 499.228L631.128 540.061L644.569 551.796L631.014 562.561Z" stroke="#EC255A" stroke-width="5"/>
<path d="M630.736 419.558L630.551 456.224L666.189 456.404L680.116 443.474L693.316 456.541L730.55 456.729L730.735 420.062L718.289 409.166L730.848 397.563L731.054 356.73L693.821 356.542L680.494 368.475L666.693 356.405L631.056 356.225L630.849 397.058L644.29 408.793L630.736 419.558Z" stroke="#EC255A" stroke-width="5"/>
<path d="M700.665 631.913L700.48 668.58L736.118 668.759L750.045 655.83L763.245 668.896L800.479 669.084L800.664 632.418L788.219 621.522L800.777 609.918L800.983 569.086L763.75 568.898L750.424 580.831L736.623 568.761L700.985 568.581L700.779 609.414L714.22 621.148L700.665 631.913Z" stroke="#EC255A" stroke-width="5"/>
<path d="M701.377 490.915L701.192 527.581L736.829 527.761L750.757 514.831L763.957 527.898L801.19 528.086L801.375 491.42L788.93 480.524L801.489 468.92L801.695 428.087L764.462 427.899L751.135 439.832L737.334 427.762L701.696 427.583L701.49 468.415L714.931 480.15L701.377 490.915Z" stroke="#EC255A" stroke-width="5"/>
<path d="M701.098 347.912L700.913 384.578L736.551 384.758L750.478 371.828L763.678 384.895L800.912 385.083L801.097 348.417L788.652 337.52L801.211 325.917L801.417 285.084L764.183 284.896L750.857 296.829L737.056 284.759L701.418 284.579L701.212 325.412L714.653 337.147L701.098 347.912Z" stroke="#EC255A" stroke-width="5"/>
<path d="M771.012 563.267L770.827 599.934L806.465 600.113L820.392 587.184L833.593 600.25L870.826 600.438L871.011 563.772L858.566 552.876L871.125 541.272L871.331 500.44L834.097 500.252L820.771 512.185L806.97 500.115L771.332 499.935L771.126 540.768L784.567 552.502L771.012 563.267Z" stroke="#EC255A" stroke-width="5"/>
<path d="M770.734 420.264L770.549 456.93L806.187 457.11L820.114 444.18L833.314 457.247L870.548 457.435L870.733 420.769L858.288 409.873L870.846 398.269L871.053 357.436L833.819 357.248L820.493 369.181L806.692 357.112L771.054 356.932L770.848 397.765L784.289 409.499L770.734 420.264Z" stroke="#EC255A" stroke-width="5"/>
<path d="M98.5932 325.205L99.0039 288.541L63.3678 288.142L49.3614 300.985L36.2419 287.838L-0.989823 287.421L-1.40057 324.085L10.9773 335.058L-1.65263 346.583L-2.11005 387.414L35.1217 387.831L48.5212 375.981L62.2476 388.135L97.8837 388.535L98.3411 347.704L84.9726 335.887L98.5932 325.205Z" stroke="#EC255A" stroke-width="5"/>
</g>
<g clip-path="url(#clip2_402_345)">
<path d="M1363.29 459.735L1363.21 423.068L1327.57 423.144L1313.74 436.173L1300.44 423.202L1263.21 423.281L1263.29 459.948L1275.81 470.754L1263.33 482.447L1263.42 523.281L1300.66 523.201L1313.9 511.173L1327.78 523.144L1363.42 523.068L1363.33 482.235L1349.81 470.597L1363.29 459.735Z" stroke="#EC255A" stroke-width="5"/>
<path d="M1433.44 530.586L1433.36 493.919L1397.72 493.995L1383.89 507.024L1370.59 494.053L1333.36 494.132L1333.44 530.798L1345.96 541.605L1333.49 553.298L1333.57 594.132L1370.81 594.052L1384.05 582.024L1397.93 593.995L1433.57 593.919L1433.49 553.085L1419.96 541.448L1433.44 530.586Z" stroke="#EC255A" stroke-width="5"/>
<path d="M1433.14 389.586L1433.06 352.919L1397.42 352.995L1383.59 366.025L1370.29 353.053L1333.06 353.132L1333.14 389.799L1345.66 400.605L1333.19 412.299L1333.27 453.132L1370.51 453.053L1383.75 441.024L1397.63 452.995L1433.27 452.919L1433.19 412.086L1419.66 400.448L1433.14 389.586Z" stroke="#EC255A" stroke-width="5"/>
<path d="M1293.12 383.884L1293.05 347.217L1257.41 347.293L1243.57 360.323L1230.28 347.351L1193.05 347.43L1193.13 384.097L1205.65 394.903L1193.17 406.597L1193.26 447.43L1230.49 447.351L1243.73 435.322L1257.62 447.293L1293.26 447.217L1293.17 406.384L1279.65 394.746L1293.12 383.884Z" stroke="#EC255A" stroke-width="5"/>
<path d="M1293.44 530.883L1293.36 494.217L1257.72 494.293L1243.89 507.322L1230.59 494.35L1193.36 494.43L1193.44 531.096L1205.96 541.903L1193.49 553.596L1193.57 594.429L1230.81 594.35L1244.05 582.322L1257.93 594.292L1293.57 594.217L1293.49 553.383L1279.96 541.745L1293.44 530.883Z" stroke="#EC255A" stroke-width="5"/>
<path d="M1363.59 602.734L1363.51 566.068L1327.87 566.144L1314.04 579.173L1300.75 566.201L1263.51 566.281L1263.59 602.947L1276.11 613.754L1263.64 625.447L1263.73 666.28L1300.96 666.201L1314.2 654.173L1328.09 666.143L1363.73 666.068L1363.64 625.234L1350.11 613.596L1363.59 602.734Z" stroke="#EC255A" stroke-width="5"/>
<path d="M1406.26 628.309L1406.11 664.975L1441.75 665.119L1455.66 652.175L1468.88 665.228L1506.11 665.378L1506.26 628.712L1493.8 617.828L1506.35 606.212L1506.51 565.379L1469.28 565.229L1455.96 577.175L1442.15 565.12L1406.51 564.976L1406.35 605.809L1419.8 617.53L1406.26 628.309Z" stroke="#EC255A" stroke-width="5"/>
<path d="M1407.96 487.305L1407.81 523.971L1443.45 524.115L1457.36 511.171L1470.58 524.224L1507.81 524.374L1507.96 487.708L1495.5 476.824L1508.05 465.208L1508.21 424.375L1470.98 424.225L1457.66 436.171L1443.85 424.116L1408.21 423.972L1408.05 464.805L1421.5 476.526L1407.96 487.305Z" stroke="#EC255A" stroke-width="5"/>
<path d="M1222.58 600.035L1222.51 563.368L1186.87 563.444L1173.03 576.473L1159.74 563.502L1122.51 563.581L1122.59 600.247L1135.11 611.054L1122.63 622.747L1122.72 663.581L1159.95 663.501L1173.19 651.473L1187.08 663.444L1222.72 663.368L1222.63 622.534L1209.11 610.897L1222.58 600.035Z" stroke="#EC255A" stroke-width="5"/>
<path d="M1221.97 311.035L1221.89 274.368L1186.25 274.444L1172.42 287.474L1159.13 274.502L1121.89 274.581L1121.97 311.248L1134.49 322.055L1122.02 333.748L1122.1 374.581L1159.34 374.502L1172.58 362.474L1186.47 374.444L1222.1 374.368L1222.02 333.535L1208.49 321.897L1221.97 311.035Z" stroke="#EC255A" stroke-width="5"/>
<path d="M1222.28 458.035L1222.2 421.368L1186.57 421.444L1172.73 434.473L1159.44 421.502L1122.2 421.581L1122.28 458.248L1134.81 469.054L1122.33 480.748L1122.42 521.581L1159.65 521.502L1172.89 509.473L1186.78 521.444L1222.42 521.368L1222.33 480.535L1208.81 468.897L1222.28 458.035Z" stroke="#EC255A" stroke-width="5"/>
<path d="M1153.13 384.182L1153.05 347.515L1117.41 347.591L1103.58 360.62L1090.28 347.649L1053.05 347.728L1053.13 384.395L1065.65 395.201L1053.17 406.895L1053.26 447.728L1090.49 447.649L1103.73 435.62L1117.62 447.591L1153.26 447.515L1153.17 406.682L1139.65 395.044L1153.13 384.182Z" stroke="#EC255A" stroke-width="5"/>
<path d="M1153.44 531.181L1153.36 494.515L1117.72 494.591L1103.89 507.62L1090.59 494.648L1053.36 494.728L1053.44 531.394L1065.96 542.201L1053.49 553.894L1053.57 594.728L1090.81 594.648L1104.05 582.62L1117.93 594.591L1153.57 594.515L1153.49 553.681L1139.96 542.044L1153.44 531.181Z" stroke="#EC255A" stroke-width="5"/>
<path d="M1083.59 602.33L1083.51 565.664L1047.87 565.74L1034.04 578.769L1020.75 565.797L983.512 565.877L983.59 602.543L996.113 613.35L983.638 625.043L983.725 665.876L1020.96 665.797L1034.2 653.769L1048.09 665.739L1083.72 665.664L1083.64 624.83L1070.11 613.192L1083.59 602.33Z" stroke="#EC255A" stroke-width="5"/>
<path d="M1082.97 313.331L1082.9 276.664L1047.26 276.74L1033.42 289.77L1020.13 276.798L982.896 276.877L982.975 313.544L995.498 324.35L983.022 336.044L983.109 376.877L1020.34 376.798L1033.58 364.769L1047.47 376.74L1083.11 376.664L1083.02 335.831L1069.5 324.193L1082.97 313.331Z" stroke="#EC255A" stroke-width="5"/>
<path d="M1083.29 460.331L1083.21 423.664L1047.57 423.74L1033.74 436.769L1020.44 423.798L983.209 423.877L983.287 460.543L995.811 471.35L983.335 483.043L983.422 523.877L1020.66 523.797L1033.9 511.769L1047.78 523.74L1083.42 523.664L1083.34 482.831L1069.81 471.193L1083.29 460.331Z" stroke="#EC255A" stroke-width="5"/>
<path d="M1011.13 386.484L1011.05 349.817L975.414 349.893L961.58 362.923L948.286 349.951L911.052 350.03L911.13 386.697L923.653 397.504L911.178 409.197L911.265 450.03L948.499 449.951L961.739 437.923L975.626 449.893L1011.26 449.817L1011.18 408.984L997.653 397.346L1011.13 386.484Z" stroke="#EC255A" stroke-width="5"/>
<path d="M1011.44 533.484L1011.36 496.817L975.727 496.893L961.893 509.922L948.599 496.951L911.365 497.03L911.443 533.697L923.966 544.503L911.491 556.197L911.578 597.03L948.812 596.951L962.052 584.922L975.939 596.893L1011.58 596.817L1011.49 555.984L997.966 544.346L1011.44 533.484Z" stroke="#EC255A" stroke-width="5"/>
<path d="M941.601 607.632L941.522 570.966L905.884 571.042L892.05 584.071L878.757 571.099L841.523 571.179L841.601 607.845L854.124 618.652L841.649 630.345L841.736 671.178L878.969 671.099L892.21 659.071L906.097 671.041L941.735 670.966L941.648 630.132L928.124 618.494L941.601 607.632Z" stroke="#EC255A" stroke-width="5"/>
<path d="M940.985 318.633L940.907 281.967L905.269 282.042L891.435 295.072L878.141 282.1L840.907 282.179L840.985 318.846L853.509 329.653L841.033 341.346L841.12 382.179L878.354 382.1L891.595 370.072L905.482 382.042L941.12 381.966L941.033 341.133L927.508 329.495L940.985 318.633Z" stroke="#EC255A" stroke-width="5"/>
<path d="M941.298 465.633L941.22 428.966L905.582 429.042L891.748 442.072L878.454 429.1L841.22 429.179L841.298 465.846L853.822 476.652L841.346 488.346L841.433 529.179L878.667 529.1L891.908 517.071L905.795 529.042L941.433 528.966L941.346 488.133L927.821 476.495L941.298 465.633Z" stroke="#EC255A" stroke-width="5"/>
<path d="M871.139 390.782L871.061 354.115L835.423 354.191L821.589 367.221L808.295 354.249L771.061 354.328L771.139 390.995L783.662 401.802L771.187 413.495L771.274 454.328L808.508 454.249L821.748 442.221L835.635 454.191L871.274 454.115L871.187 413.282L857.662 401.644L871.139 390.782Z" stroke="#EC255A" stroke-width="5"/>
<path d="M871.452 537.782L871.374 501.115L835.735 501.191L821.901 514.22L808.608 501.249L771.374 501.328L771.452 537.994L783.975 548.801L771.5 560.494L771.587 601.328L808.821 601.248L822.061 589.22L835.948 601.191L871.586 601.115L871.499 560.282L857.975 548.644L871.452 537.782Z" stroke="#EC255A" stroke-width="5"/>
<path d="M871.139 390.782L871.061 354.115L835.423 354.191L821.589 367.221L808.295 354.249L771.061 354.328L771.139 390.995L783.662 401.802L771.187 413.495L771.274 454.328L808.508 454.249L821.748 442.221L835.635 454.191L871.274 454.115L871.187 413.282L857.662 401.644L871.139 390.782Z" stroke="#EC255A" stroke-width="5"/>
<path d="M871.452 537.782L871.374 501.115L835.735 501.191L821.901 514.22L808.608 501.249L771.374 501.328L771.452 537.994L783.975 548.801L771.5 560.494L771.587 601.328L808.821 601.248L822.061 589.22L835.948 601.191L871.586 601.115L871.499 560.282L857.975 548.644L871.452 537.782Z" stroke="#EC255A" stroke-width="5"/>
<path d="M1403.65 344.314L1403.51 380.98L1439.14 381.124L1453.06 368.18L1466.27 381.233L1503.5 381.383L1503.65 344.717L1491.2 333.833L1503.74 322.217L1503.91 281.384L1466.67 281.234L1453.36 293.18L1439.55 281.125L1403.91 280.981L1403.74 321.814L1417.2 333.535L1403.65 344.314Z" stroke="#EC255A" stroke-width="5"/>
<path d="M1263.64 337.612L1263.49 374.278L1299.13 374.422L1313.04 361.478L1326.26 374.531L1363.49 374.681L1363.64 338.015L1351.18 327.131L1363.73 315.515L1363.89 274.682L1326.66 274.532L1313.34 286.478L1299.53 274.423L1263.89 274.279L1263.73 315.112L1277.18 326.833L1263.64 337.612Z" stroke="#EC255A" stroke-width="5"/>
<path d="M1263.64 337.612L1263.49 374.278L1299.13 374.422L1313.04 361.478L1326.26 374.531L1363.49 374.681L1363.64 338.015L1351.18 327.131L1363.73 315.515L1363.89 274.682L1326.66 274.532L1313.34 286.478L1299.53 274.423L1263.89 274.279L1263.73 315.112L1277.18 326.833L1263.64 337.612Z" stroke="#EC255A" stroke-width="5"/>
</g>
</g>
<path d="M0 473L26.72 467.5C53.28 462 106.72 451 160 443.8C213.28 436.7 266.72 433.3 320 443.2C373.28 453 426.72 476 480 490.2C533.28 504.3 586.72 509.7 640 507C693.28 504.3 746.72 493.7 800 490C853.28 486.3 906.72 489.7 960 485.7C1013.28 481.7 1066.72 470.3 1120 460.5C1173.28 450.7 1226.72 442.3 1280 445.5C1333.28 448.7 1386.72 463.3 1413.28 470.7L1440 478V601H1413.28C1386.72 601 1333.28 601 1280 601C1226.72 601 1173.28 601 1120 601C1066.72 601 1013.28 601 960 601C906.72 601 853.28 601 800 601C746.72 601 693.28 601 640 601C586.72 601 533.28 601 480 601C426.72 601 373.28 601 320 601C266.72 601 213.28 601 160 601C106.72 601 53.28 601 26.72 601H0V473Z" fill="#A8CCA9"/>
<mask id="mask1_402_345" style="mask-type:alpha" maskUnits="userSpaceOnUse" x="0" y="437" width="1440" height="164">
<path d="M0 473L26.72 467.5C53.28 462 106.72 451 160 443.8C213.28 436.7 266.72 433.3 320 443.2C373.28 453 426.72 476 480 490.2C533.28 504.3 586.72 509.7 640 507C693.28 504.3 746.72 493.7 800 490C853.28 486.3 906.72 489.7 960 485.7C1013.28 481.7 1066.72 470.3 1120 460.5C1173.28 450.7 1226.72 442.3 1280 445.5C1333.28 448.7 1386.72 463.3 1413.28 470.7L1440 478V601H1413.28C1386.72 601 1333.28 601 1280 601C1226.72 601 1173.28 601 1120 601C1066.72 601 1013.28 601 960 601C906.72 601 853.28 601 800 601C746.72 601 693.28 601 640 601C586.72 601 533.28 601 480 601C426.72 601 373.28 601 320 601C266.72 601 213.28 601 160 601C106.72 601 53.28 601 26.72 601H0V473Z" fill="#A8CCA9"/>
</mask>
<g mask="url(#mask1_402_345)">
<g clip-path="url(#clip3_402_345)">
<path d="M138.354 569.068L138.168 605.735L173.806 605.914L187.733 592.985L200.934 606.051L238.167 606.239L238.352 569.573L225.907 558.677L238.466 547.073L238.672 506.241L201.438 506.053L188.112 517.986L174.311 505.916L138.673 505.736L138.467 546.569L151.908 558.303L138.354 569.068Z" stroke="#00A19D" stroke-width="5"/>
<path d="M68.0012 638.714L67.8162 675.38L103.454 675.56L117.381 662.63L130.581 675.697L167.815 675.885L168 639.219L155.555 628.323L168.114 616.719L168.32 575.886L131.086 575.698L117.76 587.631L103.959 575.562L68.3209 575.382L68.1148 616.214L81.5557 627.949L68.0012 638.714Z" stroke="#00A19D" stroke-width="5"/>
<path d="M24.5243 611.829L24.9351 575.165L-10.701 574.765L-24.7075 587.609L-37.827 574.461L-75.0587 574.044L-75.4694 610.709L-63.0916 621.681L-75.7215 633.207L-76.1789 674.038L-38.9472 674.455L-25.5476 662.605L-11.8212 674.759L23.8148 675.158L24.2723 634.328L10.9038 622.51L24.5243 611.829Z" stroke="#00A19D" stroke-width="5"/>
<path d="M27.2357 470.841L27.6465 434.177L-7.98958 433.777L-21.996 446.621L-35.1155 433.473L-72.3472 433.056L-72.758 469.721L-60.3801 480.693L-73.01 492.219L-73.4675 533.05L-36.2358 533.467L-22.8362 521.616L-9.10981 533.771L26.5263 534.17L26.9837 493.339L13.6152 481.522L27.2357 470.841Z" stroke="#00A19D" stroke-width="5"/>
<path d="M98.306 542.203L98.7168 505.539L63.0807 505.14L49.0743 517.983L35.9548 504.836L-1.27693 504.419L-1.68768 541.083L10.6902 552.056L-1.93973 563.582L-2.39716 604.412L34.8345 604.829L48.2341 592.979L61.9605 605.133L97.5966 605.533L98.054 564.702L84.6855 552.885L98.306 542.203Z" stroke="#00A19D" stroke-width="5"/>
<path d="M169.244 469.558L169.655 432.893L134.019 432.494L120.012 445.338L106.893 432.19L69.6611 431.773L69.2503 468.437L81.6282 479.41L68.9983 490.936L68.5408 531.767L105.773 532.184L119.172 520.333L132.898 532.488L168.535 532.887L168.992 492.056L155.624 480.239L169.244 469.558Z" stroke="#00A19D" stroke-width="5"/>
<path d="M138.075 426.065L137.89 462.731L173.528 462.911L187.455 449.981L200.655 463.048L237.889 463.236L238.074 426.57L225.629 415.673L238.187 404.07L238.394 363.237L201.16 363.049L187.834 374.982L174.033 362.912L138.395 362.732L138.189 403.565L151.63 415.3L138.075 426.065Z" stroke="#00A19D" stroke-width="5"/>
<path d="M208.984 642.426L208.799 679.092L244.437 679.272L258.364 666.342L271.564 679.409L308.798 679.597L308.983 642.931L296.538 632.034L309.096 620.431L309.303 579.598L272.069 579.41L258.743 591.343L244.942 579.273L209.304 579.093L209.098 619.926L222.539 631.661L208.984 642.426Z" stroke="#00A19D" stroke-width="5"/>
<path d="M208.706 499.422L208.521 536.089L244.159 536.268L258.086 523.339L271.286 536.405L308.52 536.593L308.705 499.927L296.26 489.031L308.818 477.427L309.024 436.595L271.791 436.407L258.465 448.34L244.664 436.27L209.026 436.09L208.82 476.923L222.261 488.657L208.706 499.422Z" stroke="#00A19D" stroke-width="5"/>
<path d="M278.352 569.775L278.167 606.441L313.805 606.621L327.732 593.691L340.932 606.758L378.165 606.946L378.351 570.28L365.905 559.383L378.464 547.78L378.67 506.947L341.437 506.759L328.11 518.692L314.309 506.622L278.671 506.442L278.465 547.275L291.906 559.01L278.352 569.775Z" stroke="#00A19D" stroke-width="5"/>
<path d="M278.073 426.772L277.888 463.438L313.526 463.618L327.453 450.688L340.654 463.755L377.887 463.943L378.072 427.277L365.627 416.38L378.186 404.777L378.392 363.944L341.158 363.756L327.832 375.689L314.031 363.619L278.393 363.439L278.187 404.272L291.628 416.007L278.073 426.772Z" stroke="#00A19D" stroke-width="5"/>
<path d="M347.992 641.127L347.807 677.793L383.445 677.973L397.372 665.043L410.573 678.11L447.806 678.298L447.991 641.632L435.546 630.736L448.105 619.132L448.311 578.299L411.077 578.112L397.751 590.044L383.95 577.975L348.312 577.795L348.106 618.628L361.547 630.362L347.992 641.127Z" stroke="#00A19D" stroke-width="5"/>
<path d="M347.714 498.124L347.529 534.79L383.167 534.97L397.094 522.04L410.294 535.107L447.528 535.295L447.713 498.629L435.268 487.733L447.827 476.129L448.033 435.296L410.799 435.108L397.473 447.041L383.672 434.971L348.034 434.792L347.828 475.624L361.269 487.359L347.714 498.124Z" stroke="#00A19D" stroke-width="5"/>
<path d="M420.36 568.492L420.175 605.158L455.813 605.338L469.74 592.408L482.94 605.475L520.174 605.663L520.359 568.996L507.914 558.1L520.472 546.497L520.679 505.664L483.445 505.476L470.119 517.409L456.318 505.339L420.68 505.159L420.474 545.992L433.915 557.727L420.36 568.492Z" stroke="#00A19D" stroke-width="5"/>
<path d="M420.082 425.489L419.897 462.155L455.535 462.335L469.462 449.405L482.662 462.472L519.895 462.66L520.081 425.993L507.635 415.097L520.194 403.494L520.4 362.661L483.167 362.473L469.84 374.406L456.039 362.336L420.401 362.156L420.195 402.989L433.636 414.724L420.082 425.489Z" stroke="#00A19D" stroke-width="5"/>
<path d="M490.016 636.844L489.831 673.51L525.469 673.69L539.396 660.76L552.596 673.827L589.83 674.015L590.015 637.349L577.569 626.452L590.128 614.849L590.334 574.016L553.101 573.828L539.774 585.761L525.973 573.691L490.336 573.512L490.129 614.344L503.57 626.079L490.016 636.844Z" stroke="#00A19D" stroke-width="5"/>
<path d="M489.738 493.841L489.553 530.507L525.191 530.687L539.118 517.757L552.318 530.824L589.551 531.012L589.737 494.346L577.291 483.449L589.85 471.846L590.056 431.013L552.823 430.825L539.496 442.758L525.695 430.688L490.057 430.508L489.851 471.341L503.292 483.076L489.738 493.841Z" stroke="#00A19D" stroke-width="5"/>
<path d="M560.378 565.198L560.193 601.865L595.831 602.044L609.758 589.115L622.959 602.181L660.192 602.369L660.377 565.703L647.932 554.807L660.491 543.203L660.697 502.37L623.463 502.183L610.137 514.115L596.336 502.046L560.698 501.866L560.492 542.699L573.933 554.433L560.378 565.198Z" stroke="#00A19D" stroke-width="5"/>
<path d="M560.1 422.195L559.915 458.861L595.553 459.041L609.48 446.111L622.68 459.178L659.914 459.366L660.099 422.7L647.654 411.804L660.213 400.2L660.419 359.367L623.185 359.179L609.859 371.112L596.058 359.042L560.42 358.863L560.214 399.695L573.655 411.43L560.1 422.195Z" stroke="#00A19D" stroke-width="5"/>
<path d="M560.378 565.198L560.193 601.865L595.831 602.044L609.758 589.115L622.959 602.181L660.192 602.369L660.377 565.703L647.932 554.807L660.491 543.203L660.697 502.37L623.463 502.183L610.137 514.115L596.336 502.046L560.698 501.866L560.492 542.699L573.933 554.433L560.378 565.198Z" stroke="#00A19D" stroke-width="5"/>
<path d="M560.1 422.195L559.915 458.861L595.553 459.041L609.48 446.111L622.68 459.178L659.914 459.366L660.099 422.7L647.654 411.804L660.213 400.2L660.419 359.367L623.185 359.179L609.859 371.112L596.058 359.042L560.42 358.863L560.214 399.695L573.655 411.43L560.1 422.195Z" stroke="#00A19D" stroke-width="5"/>
<path d="M632.014 637.561L631.829 674.227L667.467 674.407L681.394 661.477L694.594 674.544L731.828 674.732L732.013 638.066L719.568 627.169L732.126 615.566L732.333 574.733L695.099 574.545L681.773 586.478L667.972 574.408L632.334 574.228L632.128 615.061L645.569 626.796L632.014 637.561Z" stroke="#00A19D" stroke-width="5"/>
<path d="M631.736 494.558L631.551 531.224L667.189 531.404L681.116 518.474L694.316 531.541L731.55 531.729L731.735 495.062L719.289 484.166L731.848 472.563L732.054 431.73L694.821 431.542L681.494 443.475L667.693 431.405L632.056 431.225L631.849 472.058L645.29 483.793L631.736 494.558Z" stroke="#00A19D" stroke-width="5"/>
<path d="M702.377 565.915L702.192 602.581L737.829 602.761L751.757 589.831L764.957 602.898L802.19 603.086L802.375 566.42L789.93 555.524L802.489 543.92L802.695 503.087L765.462 502.899L752.135 514.832L738.334 502.762L702.696 502.583L702.49 543.415L715.931 555.15L702.377 565.915Z" stroke="#00A19D" stroke-width="5"/>
<path d="M702.098 422.912L701.913 459.578L737.551 459.758L751.478 446.828L764.678 459.895L801.912 460.083L802.097 423.417L789.652 412.52L802.211 400.917L802.417 360.084L765.183 359.896L751.857 371.829L738.056 359.759L702.418 359.579L702.212 400.412L715.653 412.147L702.098 422.912Z" stroke="#00A19D" stroke-width="5"/>
<path d="M772.012 638.267L771.827 674.934L807.465 675.113L821.392 662.184L834.593 675.25L871.826 675.438L872.011 638.772L859.566 627.876L872.125 616.272L872.331 575.44L835.097 575.252L821.771 587.185L807.97 575.115L772.332 574.935L772.126 615.768L785.567 627.502L772.012 638.267Z" stroke="#00A19D" stroke-width="5"/>
<path d="M771.734 495.264L771.549 531.93L807.187 532.11L821.114 519.18L834.314 532.247L871.548 532.435L871.733 495.769L859.288 484.873L871.846 473.269L872.053 432.436L834.819 432.248L821.493 444.181L807.692 432.112L772.054 431.932L771.848 472.765L785.289 484.499L771.734 495.264Z" stroke="#00A19D" stroke-width="5"/>
<path d="M99.5932 400.205L100.004 363.541L64.3678 363.142L50.3614 375.985L37.2419 362.838L0.0101767 362.421L-0.400574 399.085L11.9773 410.058L-0.652625 421.583L-1.11005 462.414L36.1217 462.831L49.5212 450.981L63.2476 463.135L98.8837 463.535L99.3411 422.704L85.9726 410.887L99.5932 400.205Z" stroke="#00A19D" stroke-width="5"/>
</g>
<g clip-path="url(#clip4_402_345)">
<path d="M1353.29 534.736L1353.22 498.069L1317.58 498.146L1303.74 511.175L1290.45 498.204L1253.22 498.284L1253.29 534.95L1265.82 545.757L1253.34 557.45L1253.43 598.284L1290.66 598.204L1303.9 586.175L1317.79 598.146L1353.43 598.069L1353.34 557.236L1339.82 545.598L1353.29 534.736Z" stroke="#00A19D" stroke-width="5"/>
<path d="M1423.44 605.586L1423.37 568.919L1387.73 568.995L1373.89 582.025L1360.6 569.054L1323.37 569.133L1323.44 605.8L1335.97 616.606L1323.49 628.3L1323.58 669.133L1360.81 669.053L1374.05 657.025L1387.94 668.995L1423.58 668.919L1423.49 628.085L1409.97 616.448L1423.44 605.586Z" stroke="#00A19D" stroke-width="5"/>
<path d="M1423.15 464.586L1423.07 427.919L1387.43 427.996L1373.6 441.026L1360.3 428.054L1323.07 428.134L1323.15 464.8L1335.67 475.607L1323.19 487.3L1323.28 528.134L1360.51 528.054L1373.76 516.025L1387.64 527.996L1423.28 527.919L1423.19 487.086L1409.67 475.448L1423.15 464.586Z" stroke="#00A19D" stroke-width="5"/>
<path d="M1283.13 458.886L1283.06 422.22L1247.42 422.296L1233.58 435.326L1220.29 422.354L1183.06 422.434L1183.13 459.101L1195.66 469.907L1183.18 481.601L1183.27 522.434L1220.5 522.354L1233.74 510.326L1247.63 522.296L1283.27 522.22L1283.18 481.386L1269.66 469.749L1283.13 458.886Z" stroke="#00A19D" stroke-width="5"/>
<path d="M1283.44 605.886L1283.37 569.219L1247.73 569.296L1233.89 582.325L1220.6 569.354L1183.37 569.434L1183.44 606.1L1195.97 616.907L1183.49 628.6L1183.58 669.433L1220.81 669.354L1234.05 657.325L1247.94 669.295L1283.58 669.219L1283.49 628.386L1269.97 616.748L1283.44 605.886Z" stroke="#00A19D" stroke-width="5"/>
<path d="M1397.96 562.306L1397.82 598.972L1433.45 599.115L1447.37 586.171L1460.58 599.224L1497.82 599.373L1497.96 562.707L1485.51 551.823L1498.06 540.207L1498.22 499.374L1460.99 499.224L1447.67 511.171L1433.86 499.116L1398.22 498.973L1398.06 539.806L1411.51 551.526L1397.96 562.306Z" stroke="#00A19D" stroke-width="5"/>
<path d="M1211.98 386.039L1211.9 349.372L1176.26 349.449L1162.43 362.478L1149.14 349.507L1111.9 349.587L1111.98 386.253L1124.5 397.06L1112.03 408.753L1112.11 449.586L1149.35 449.506L1162.59 437.478L1176.48 449.448L1212.11 449.372L1212.03 408.539L1198.5 396.901L1211.98 386.039Z" stroke="#00A19D" stroke-width="5"/>
<path d="M1212.29 533.038L1212.21 496.372L1176.57 496.448L1162.74 509.478L1149.45 496.506L1112.21 496.586L1112.29 533.253L1124.81 544.059L1112.34 555.753L1112.42 596.586L1149.66 596.506L1162.9 584.478L1176.79 596.448L1212.42 596.372L1212.34 555.538L1198.81 543.901L1212.29 533.038Z" stroke="#00A19D" stroke-width="5"/>
<path d="M1143.13 459.186L1143.06 422.52L1107.42 422.596L1093.58 435.626L1080.29 422.654L1043.06 422.734L1043.13 459.401L1055.66 470.207L1043.18 481.901L1043.27 522.734L1080.5 522.654L1093.74 510.626L1107.63 522.596L1143.27 522.52L1143.18 481.686L1129.66 470.049L1143.13 459.186Z" stroke="#00A19D" stroke-width="5"/>
<path d="M1143.45 606.186L1143.37 569.52L1107.73 569.596L1093.9 582.626L1080.6 569.654L1043.37 569.734L1043.45 606.401L1055.97 617.207L1043.49 628.901L1043.58 669.734L1080.81 669.654L1094.05 657.625L1107.94 669.596L1143.58 669.519L1143.49 628.686L1129.97 617.048L1143.45 606.186Z" stroke="#00A19D" stroke-width="5"/>
<path d="M1072.98 388.337L1072.91 351.67L1037.27 351.747L1023.43 364.776L1010.14 351.805L972.907 351.885L972.985 388.551L985.508 399.358L973.032 411.051L973.119 451.884L1010.35 451.805L1023.59 439.776L1037.48 451.746L1073.12 451.67L1073.03 410.837L1059.51 399.199L1072.98 388.337Z" stroke="#00A19D" stroke-width="5"/>
<path d="M1073.3 535.337L1073.22 498.67L1037.58 498.746L1023.75 511.776L1010.45 498.805L973.218 498.884L973.295 535.551L985.818 546.357L973.343 558.051L973.429 598.884L1010.66 598.804L1023.9 586.776L1037.79 598.746L1073.43 598.67L1073.34 557.836L1059.82 546.199L1073.3 535.337Z" stroke="#00A19D" stroke-width="5"/>
<path d="M1001.14 461.491L1001.06 424.824L965.423 424.901L951.589 437.931L938.296 424.959L901.062 425.039L901.139 461.706L913.662 472.512L901.187 484.205L901.273 525.039L938.507 524.959L951.748 512.93L965.635 524.901L1001.27 524.824L1001.19 483.991L987.662 472.353L1001.14 461.491Z" stroke="#00A19D" stroke-width="5"/>
<path d="M1001.45 608.491L1001.37 571.824L965.734 571.9L951.9 584.93L938.606 571.959L901.372 572.038L901.45 608.705L913.973 619.512L901.497 631.205L901.584 672.038L938.817 671.958L952.058 659.93L965.945 671.9L1001.58 671.824L1001.5 630.991L987.972 619.353L1001.45 608.491Z" stroke="#00A19D" stroke-width="5"/>
<path d="M930.996 393.641L930.918 356.975L895.28 357.051L881.446 370.081L868.152 357.109L830.918 357.189L830.996 393.856L843.519 404.662L831.043 416.356L831.13 457.189L868.364 457.109L881.604 445.081L895.491 457.051L931.129 456.974L931.043 416.141L917.519 404.503L930.996 393.641Z" stroke="#00A19D" stroke-width="5"/>
<path d="M931.306 540.641L931.229 503.974L895.591 504.051L881.756 517.08L868.463 504.109L831.229 504.189L831.306 540.855L843.829 551.662L831.354 563.355L831.44 604.189L868.674 604.109L881.915 592.08L895.802 604.051L931.44 603.974L931.354 563.141L917.829 551.503L931.306 540.641Z" stroke="#00A19D" stroke-width="5"/>
<path d="M861.148 465.791L861.07 429.125L825.432 429.201L811.598 442.231L798.305 429.259L761.071 429.339L761.148 466.006L773.671 476.812L761.196 488.506L761.282 529.339L798.516 529.259L811.756 517.231L825.643 529.201L861.282 529.125L861.195 488.291L847.671 476.654L861.148 465.791Z" stroke="#00A19D" stroke-width="5"/>
<path d="M861.458 612.791L861.381 576.124L825.743 576.201L811.908 589.23L798.615 576.259L761.381 576.339L761.459 613.005L773.981 623.812L761.506 635.505L761.592 676.339L798.826 676.259L812.067 664.23L825.954 676.2L861.592 676.124L861.506 635.291L847.981 623.653L861.458 612.791Z" stroke="#00A19D" stroke-width="5"/>
<path d="M861.148 465.791L861.07 429.125L825.432 429.201L811.598 442.231L798.305 429.259L761.071 429.339L761.148 466.006L773.671 476.812L761.196 488.506L761.282 529.339L798.516 529.259L811.756 517.231L825.643 529.201L861.282 529.125L861.195 488.291L847.671 476.654L861.148 465.791Z" stroke="#00A19D" stroke-width="5"/>
<path d="M861.458 612.791L861.381 576.124L825.743 576.201L811.908 589.23L798.615 576.259L761.381 576.339L761.459 613.005L773.981 623.812L761.506 635.505L761.592 676.339L798.826 676.259L812.067 664.23L825.954 676.2L861.592 676.124L861.506 635.291L847.981 623.653L861.458 612.791Z" stroke="#00A19D" stroke-width="5"/>
<path d="M1393.66 419.315L1393.51 455.981L1429.15 456.124L1443.07 443.18L1456.28 456.233L1493.51 456.382L1493.66 419.716L1481.21 408.832L1493.75 397.216L1493.92 356.383L1456.68 356.233L1443.37 368.18L1429.56 356.125L1393.92 355.982L1393.75 396.815L1407.21 408.535L1393.66 419.315Z" stroke="#00A19D" stroke-width="5"/>
<path d="M1253.65 412.615L1253.5 449.281L1289.14 449.424L1303.05 436.48L1316.27 449.533L1353.5 449.682L1353.65 413.016L1341.19 402.132L1353.74 390.516L1353.9 349.683L1316.67 349.534L1303.36 361.48L1289.54 349.425L1253.9 349.282L1253.74 390.115L1267.19 401.836L1253.65 412.615Z" stroke="#00A19D" stroke-width="5"/>
<path d="M1253.65 412.615L1253.5 449.281L1289.14 449.424L1303.05 436.48L1316.27 449.533L1353.5 449.682L1353.65 413.016L1341.19 402.132L1353.74 390.516L1353.9 349.683L1316.67 349.534L1303.36 361.48L1289.54 349.425L1253.9 349.282L1253.74 390.115L1267.19 401.836L1253.65 412.615Z" stroke="#00A19D" stroke-width="5"/>
</g>
</g>
<path d="M0 534L26.72 536.5C53.28 539 106.72 544 160 547C213.28 550 266.72 551 320 542.3C373.28 533.7 426.72 515.3 480 514.3C533.28 513.3 586.72 529.7 640 531C693.28 532.3 746.72 518.7 800 519.8C853.28 521 906.72 537 960 545C1013.28 553 1066.72 553 1120 541.7C1173.28 530.3 1226.72 507.7 1280 504.5C1333.28 501.3 1386.72 517.7 1413.28 525.8L1440 534V601H1413.28C1386.72 601 1333.28 601 1280 601C1226.72 601 1173.28 601 1120 601C1066.72 601 1013.28 601 960 601C906.72 601 853.28 601 800 601C746.72 601 693.28 601 640 601C586.72 601 533.28 601 480 601C426.72 601 373.28 601 320 601C266.72 601 213.28 601 160 601C106.72 601 53.28 601 26.72 601H0V534Z" fill="#00A19D"/>
<mask id="mask2_402_345" style="mask-type:alpha" maskUnits="userSpaceOnUse" x="0" y="504" width="1440" height="97">
<path d="M0 534L26.72 536.5C53.28 539 106.72 544 160 547C213.28 550 266.72 551 320 542.3C373.28 533.7 426.72 515.3 480 514.3C533.28 513.3 586.72 529.7 640 531C693.28 532.3 746.72 518.7 800 519.8C853.28 521 906.72 537 960 545C1013.28 553 1066.72 553 1120 541.7C1173.28 530.3 1226.72 507.7 1280 504.5C1333.28 501.3 1386.72 517.7 1413.28 525.8L1440 534V601H1413.28C1386.72 601 1333.28 601 1280 601C1226.72 601 1173.28 601 1120 601C1066.72 601 1013.28 601 960 601C906.72 601 853.28 601 800 601C746.72 601 693.28 601 640 601C586.72 601 533.28 601 480 601C426.72 601 373.28 601 320 601C266.72 601 213.28 601 160 601C106.72 601 53.28 601 26.72 601H0V534Z" fill="#00A19D"/>
</mask>
<g mask="url(#mask2_402_345)">
<g clip-path="url(#clip5_402_345)">
<path d="M138.354 569.068L138.168 605.735L173.806 605.914L187.733 592.985L200.934 606.051L238.167 606.239L238.352 569.573L225.907 558.677L238.466 547.073L238.672 506.241L201.438 506.053L188.112 517.986L174.311 505.916L138.673 505.736L138.467 546.569L151.908 558.303L138.354 569.068Z" stroke="#FFF8E5" stroke-width="5"/>
<path d="M68.0012 638.714L67.8162 675.38L103.454 675.56L117.381 662.63L130.581 675.697L167.815 675.885L168 639.219L155.555 628.323L168.114 616.719L168.32 575.886L131.086 575.698L117.76 587.631L103.959 575.562L68.3209 575.382L68.1148 616.214L81.5557 627.949L68.0012 638.714Z" stroke="#FFF8E5" stroke-width="5"/>
<path d="M24.5243 611.829L24.9351 575.165L-10.701 574.765L-24.7075 587.609L-37.827 574.461L-75.0587 574.044L-75.4694 610.709L-63.0916 621.681L-75.7215 633.207L-76.1789 674.038L-38.9472 674.455L-25.5476 662.605L-11.8212 674.759L23.8148 675.158L24.2723 634.328L10.9038 622.51L24.5243 611.829Z" stroke="#FFF8E5" stroke-width="5"/>
<path d="M27.2357 470.841L27.6465 434.177L-7.98958 433.777L-21.996 446.621L-35.1155 433.473L-72.3472 433.056L-72.758 469.721L-60.3801 480.693L-73.01 492.219L-73.4675 533.05L-36.2358 533.467L-22.8362 521.616L-9.10981 533.771L26.5263 534.17L26.9837 493.339L13.6152 481.522L27.2357 470.841Z" stroke="#FFF8E5" stroke-width="5"/>
<path d="M98.306 542.203L98.7168 505.539L63.0807 505.14L49.0743 517.983L35.9548 504.836L-1.27693 504.419L-1.68768 541.083L10.6902 552.056L-1.93973 563.582L-2.39716 604.412L34.8345 604.829L48.2341 592.979L61.9605 605.133L97.5966 605.533L98.054 564.702L84.6855 552.885L98.306 542.203Z" stroke="#FFF8E5" stroke-width="5"/>
<path d="M169.244 469.558L169.655 432.893L134.019 432.494L120.012 445.338L106.893 432.19L69.6611 431.773L69.2503 468.437L81.6282 479.41L68.9983 490.936L68.5408 531.767L105.773 532.184L119.172 520.333L132.898 532.488L168.535 532.887L168.992 492.056L155.624 480.239L169.244 469.558Z" stroke="#FFF8E5" stroke-width="5"/>
<path d="M208.984 642.426L208.799 679.092L244.437 679.272L258.364 666.342L271.564 679.409L308.798 679.597L308.983 642.931L296.538 632.034L309.096 620.431L309.303 579.598L272.069 579.41L258.743 591.343L244.942 579.273L209.304 579.093L209.098 619.926L222.539 631.661L208.984 642.426Z" stroke="#FFF8E5" stroke-width="5"/>
<path d="M208.706 499.422L208.521 536.089L244.159 536.268L258.086 523.339L271.286 536.405L308.52 536.593L308.705 499.927L296.26 489.031L308.818 477.427L309.024 436.595L271.791 436.407L258.465 448.34L244.664 436.27L209.026 436.09L208.82 476.923L222.261 488.657L208.706 499.422Z" stroke="#FFF8E5" stroke-width="5"/>
<path d="M278.352 569.775L278.167 606.441L313.805 606.621L327.732 593.691L340.932 606.758L378.165 606.946L378.351 570.28L365.905 559.383L378.464 547.78L378.67 506.947L341.437 506.759L328.11 518.692L314.309 506.622L278.671 506.442L278.465 547.275L291.906 559.01L278.352 569.775Z" stroke="#FFF8E5" stroke-width="5"/>
<path d="M347.992 641.127L347.807 677.793L383.445 677.973L397.372 665.043L410.573 678.11L447.806 678.298L447.991 641.632L435.546 630.736L448.105 619.132L448.311 578.299L411.077 578.112L397.751 590.044L383.95 577.975L348.312 577.795L348.106 618.628L361.547 630.362L347.992 641.127Z" stroke="#FFF8E5" stroke-width="5"/>
<path d="M347.714 498.124L347.529 534.79L383.167 534.97L397.094 522.04L410.294 535.107L447.528 535.295L447.713 498.629L435.268 487.733L447.827 476.129L448.033 435.296L410.799 435.108L397.473 447.041L383.672 434.971L348.034 434.792L347.828 475.624L361.269 487.359L347.714 498.124Z" stroke="#FFF8E5" stroke-width="5"/>
<path d="M420.36 568.492L420.175 605.158L455.813 605.338L469.74 592.408L482.94 605.475L520.174 605.663L520.359 568.996L507.914 558.1L520.472 546.497L520.679 505.664L483.445 505.476L470.119 517.409L456.318 505.339L420.68 505.159L420.474 545.992L433.915 557.727L420.36 568.492Z" stroke="#FFF8E5" stroke-width="5"/>
<path d="M490.016 636.844L489.831 673.51L525.469 673.69L539.396 660.76L552.596 673.827L589.83 674.015L590.015 637.349L577.569 626.452L590.128 614.849L590.334 574.016L553.101 573.828L539.774 585.761L525.973 573.691L490.336 573.512L490.129 614.344L503.57 626.079L490.016 636.844Z" stroke="#FFF8E5" stroke-width="5"/>
<path d="M489.738 493.841L489.553 530.507L525.191 530.687L539.118 517.757L552.318 530.824L589.551 531.012L589.737 494.346L577.291 483.449L589.85 471.846L590.056 431.013L552.823 430.825L539.496 442.758L525.695 430.688L490.057 430.508L489.851 471.341L503.292 483.076L489.738 493.841Z" stroke="#FFF8E5" stroke-width="5"/>
<path d="M560.378 565.198L560.193 601.865L595.831 602.044L609.758 589.115L622.959 602.181L660.192 602.369L660.377 565.703L647.932 554.807L660.491 543.203L660.697 502.37L623.463 502.183L610.137 514.115L596.336 502.046L560.698 501.866L560.492 542.699L573.933 554.433L560.378 565.198Z" stroke="#FFF8E5" stroke-width="5"/>
<path d="M560.378 565.198L560.193 601.865L595.831 602.044L609.758 589.115L622.959 602.181L660.192 602.369L660.377 565.703L647.932 554.807L660.491 543.203L660.697 502.37L623.463 502.183L610.137 514.115L596.336 502.046L560.698 501.866L560.492 542.699L573.933 554.433L560.378 565.198Z" stroke="#FFF8E5" stroke-width="5"/>
<path d="M632.014 637.561L631.829 674.227L667.467 674.407L681.394 661.477L694.594 674.544L731.828 674.732L732.013 638.066L719.568 627.169L732.126 615.566L732.333 574.733L695.099 574.545L681.773 586.478L667.972 574.408L632.334 574.228L632.128 615.061L645.569 626.796L632.014 637.561Z" stroke="#FFF8E5" stroke-width="5"/>
<path d="M631.736 494.558L631.551 531.224L667.189 531.404L681.116 518.474L694.316 531.541L731.55 531.729L731.735 495.062L719.289 484.166L731.848 472.563L732.054 431.73L694.821 431.542L681.494 443.475L667.693 431.405L632.056 431.225L631.849 472.058L645.29 483.793L631.736 494.558Z" stroke="#FFF8E5" stroke-width="5"/>
<path d="M702.377 565.915L702.192 602.581L737.829 602.761L751.757 589.831L764.957 602.898L802.19 603.086L802.375 566.42L789.93 555.524L802.489 543.92L802.695 503.087L765.462 502.899L752.135 514.832L738.334 502.762L702.696 502.583L702.49 543.415L715.931 555.15L702.377 565.915Z" stroke="#FFF8E5" stroke-width="5"/>
<path d="M772.012 638.267L771.827 674.934L807.465 675.113L821.392 662.184L834.593 675.25L871.826 675.438L872.011 638.772L859.566 627.876L872.125 616.272L872.331 575.44L835.097 575.252L821.771 587.185L807.97 575.115L772.332 574.935L772.126 615.768L785.567 627.502L772.012 638.267Z" stroke="#FFF8E5" stroke-width="5"/>
<path d="M771.734 495.264L771.549 531.93L807.187 532.11L821.114 519.18L834.314 532.247L871.548 532.435L871.733 495.769L859.288 484.873L871.846 473.269L872.053 432.436L834.819 432.248L821.493 444.181L807.692 432.112L772.054 431.932L771.848 472.765L785.289 484.499L771.734 495.264Z" stroke="#FFF8E5" stroke-width="5"/>
</g>
<g clip-path="url(#clip6_402_345)">
<path d="M1353.29 534.736L1353.22 498.069L1317.58 498.146L1303.74 511.175L1290.45 498.204L1253.22 498.284L1253.29 534.95L1265.82 545.757L1253.34 557.45L1253.43 598.284L1290.66 598.204L1303.9 586.175L1317.79 598.146L1353.43 598.069L1353.34 557.236L1339.82 545.598L1353.29 534.736Z" stroke="#FFF8E5" stroke-width="5"/>
<path d="M1423.44 605.586L1423.37 568.919L1387.73 568.995L1373.89 582.025L1360.6 569.054L1323.37 569.133L1323.44 605.8L1335.97 616.606L1323.49 628.3L1323.58 669.133L1360.81 669.053L1374.05 657.025L1387.94 668.995L1423.58 668.919L1423.49 628.085L1409.97 616.448L1423.44 605.586Z" stroke="#FFF8E5" stroke-width="5"/>
<path d="M1423.15 464.586L1423.07 427.919L1387.43 427.996L1373.6 441.026L1360.3 428.054L1323.07 428.134L1323.15 464.8L1335.67 475.607L1323.19 487.3L1323.28 528.134L1360.51 528.054L1373.76 516.025L1387.64 527.996L1423.28 527.919L1423.19 487.086L1409.67 475.448L1423.15 464.586Z" stroke="#FFF8E5" stroke-width="5"/>
<path d="M1283.13 458.886L1283.06 422.22L1247.42 422.296L1233.58 435.326L1220.29 422.354L1183.06 422.434L1183.13 459.101L1195.66 469.907L1183.18 481.601L1183.27 522.434L1220.5 522.354L1233.74 510.326L1247.63 522.296L1283.27 522.22L1283.18 481.386L1269.66 469.749L1283.13 458.886Z" stroke="#FFF8E5" stroke-width="5"/>
<path d="M1283.44 605.886L1283.37 569.219L1247.73 569.296L1233.89 582.325L1220.6 569.354L1183.37 569.434L1183.44 606.1L1195.97 616.907L1183.49 628.6L1183.58 669.433L1220.81 669.354L1234.05 657.325L1247.94 669.295L1283.58 669.219L1283.49 628.386L1269.97 616.748L1283.44 605.886Z" stroke="#FFF8E5" stroke-width="5"/>
<path d="M1397.96 562.306L1397.82 598.972L1433.45 599.115L1447.37 586.171L1460.58 599.224L1497.82 599.373L1497.96 562.707L1485.51 551.823L1498.06 540.207L1498.22 499.374L1460.99 499.224L1447.67 511.171L1433.86 499.116L1398.22 498.973L1398.06 539.806L1411.51 551.526L1397.96 562.306Z" stroke="#FFF8E5" stroke-width="5"/>
<path d="M1212.29 533.038L1212.21 496.372L1176.57 496.448L1162.74 509.478L1149.45 496.506L1112.21 496.586L1112.29 533.253L1124.81 544.059L1112.34 555.753L1112.42 596.586L1149.66 596.506L1162.9 584.478L1176.79 596.448L1212.42 596.372L1212.34 555.538L1198.81 543.901L1212.29 533.038Z" stroke="#FFF8E5" stroke-width="5"/>
<path d="M1143.13 459.186L1143.06 422.52L1107.42 422.596L1093.58 435.626L1080.29 422.654L1043.06 422.734L1043.13 459.401L1055.66 470.207L1043.18 481.901L1043.27 522.734L1080.5 522.654L1093.74 510.626L1107.63 522.596L1143.27 522.52L1143.18 481.686L1129.66 470.049L1143.13 459.186Z" stroke="#FFF8E5" stroke-width="5"/>
<path d="M1143.45 606.186L1143.37 569.52L1107.73 569.596L1093.9 582.626L1080.6 569.654L1043.37 569.734L1043.45 606.401L1055.97 617.207L1043.49 628.901L1043.58 669.734L1080.81 669.654L1094.05 657.625L1107.94 669.596L1143.58 669.519L1143.49 628.686L1129.97 617.048L1143.45 606.186Z" stroke="#FFF8E5" stroke-width="5"/>
<path d="M1073.3 535.337L1073.22 498.67L1037.58 498.746L1023.75 511.776L1010.45 498.805L973.218 498.884L973.295 535.551L985.818 546.357L973.343 558.051L973.429 598.884L1010.66 598.804L1023.9 586.776L1037.79 598.746L1073.43 598.67L1073.34 557.836L1059.82 546.199L1073.3 535.337Z" stroke="#FFF8E5" stroke-width="5"/>
<path d="M1001.14 461.491L1001.06 424.824L965.423 424.901L951.589 437.931L938.296 424.959L901.062 425.039L901.139 461.706L913.662 472.512L901.187 484.205L901.273 525.039L938.507 524.959L951.748 512.93L965.635 524.901L1001.27 524.824L1001.19 483.991L987.662 472.353L1001.14 461.491Z" stroke="#FFF8E5" stroke-width="5"/>
<path d="M1001.45 608.491L1001.37 571.824L965.734 571.9L951.9 584.93L938.606 571.959L901.372 572.038L901.45 608.705L913.973 619.512L901.497 631.205L901.584 672.038L938.817 671.958L952.058 659.93L965.945 671.9L1001.58 671.824L1001.5 630.991L987.972 619.353L1001.45 608.491Z" stroke="#FFF8E5" stroke-width="5"/>
<path d="M931.306 540.641L931.229 503.974L895.591 504.051L881.756 517.08L868.463 504.109L831.229 504.189L831.306 540.855L843.829 551.662L831.354 563.355L831.44 604.189L868.674 604.109L881.915 592.08L895.802 604.051L931.44 603.974L931.354 563.141L917.829 551.503L931.306 540.641Z" stroke="#FFF8E5" stroke-width="5"/>
<path d="M861.148 465.791L861.07 429.125L825.432 429.201L811.598 442.231L798.305 429.259L761.071 429.339L761.148 466.006L773.671 476.812L761.196 488.506L761.282 529.339L798.516 529.259L811.756 517.231L825.643 529.201L861.282 529.125L861.195 488.291L847.671 476.654L861.148 465.791Z" stroke="#FFF8E5" stroke-width="5"/>
<path d="M861.458 612.791L861.381 576.124L825.743 576.201L811.908 589.23L798.615 576.259L761.381 576.339L761.459 613.005L773.981 623.812L761.506 635.505L761.592 676.339L798.826 676.259L812.067 664.23L825.954 676.2L861.592 676.124L861.506 635.291L847.981 623.653L861.458 612.791Z" stroke="#FFF8E5" stroke-width="5"/>
<path d="M861.148 465.791L861.07 429.125L825.432 429.201L811.598 442.231L798.305 429.259L761.071 429.339L761.148 466.006L773.671 476.812L761.196 488.506L761.282 529.339L798.516 529.259L811.756 517.231L825.643 529.201L861.282 529.125L861.195 488.291L847.671 476.654L861.148 465.791Z" stroke="#FFF8E5" stroke-width="5"/>
<path d="M861.458 612.791L861.381 576.124L825.743 576.201L811.908 589.23L798.615 576.259L761.381 576.339L761.459 613.005L773.981 623.812L761.506 635.505L761.592 676.339L798.826 676.259L812.067 664.23L825.954 676.2L861.592 676.124L861.506 635.291L847.981 623.653L861.458 612.791Z" stroke="#FFF8E5" stroke-width="5"/>
</g>
</g>
</g>
<defs>
<filter id="filter0_d_402_345" x="-50" y="296" width="1540" height="355" filterUnits="userSpaceOnUse" color-interpolation-filters="sRGB">
<feFlood flood-opacity="0" result="BackgroundImageFix"/>
<feColorMatrix in="SourceAlpha" type="matrix" values="0 0 0 0 0 0 0 0 0 0 0 0 0 0 0 0 0 0 127 0" result="hardAlpha"/>
<feOffset/>
<feGaussianBlur stdDeviation="25"/>
<feComposite in2="hardAlpha" operator="out"/>
<feColorMatrix type="matrix" values="0 0 0 0 0.483333 0 0 0 0 0.477369 0 0 0 0 0.461181 0 0 0 0.25 0"/>
<feBlend mode="normal" in2="BackgroundImageFix" result="effect1_dropShadow_402_345"/>
<feBlend mode="normal" in="SourceGraphic" in2="effect1_dropShadow_402_345" result="shape"/>
</filter>
<clipPath id="clip0_402_345">
<rect width="1440" height="600" fill="white"/>
</clipPath>
<clipPath id="clip1_402_345">
<rect width="614" height="832.547" fill="white" transform="translate(-11 959.992) rotate(-89.7108)"/>
</clipPath>
<clipPath id="clip2_402_345">
<rect width="606.468" height="615.239" fill="white" transform="translate(1439.05 346.906) rotate(89.8781)"/>
</clipPath>
<clipPath id="clip3_402_345">
<rect width="614" height="826.237" fill="white" transform="translate(-10 1034.99) rotate(-89.7108)"/>
</clipPath>
<clipPath id="clip4_402_345">
<rect width="606.468" height="610.576" fill="white" transform="matrix(0.00211225 0.999998 -0.999998 0.00214464 1429.06 421.906)"/>
</clipPath>
<clipPath id="clip5_402_345">
<rect width="614" height="826.237" fill="white" transform="translate(-10 1034.99) rotate(-89.7108)"/>
</clipPath>
<clipPath id="clip6_402_345">
<rect width="606.468" height="610.576" fill="white" transform="matrix(0.00211225 0.999998 -0.999998 0.00214464 1429.06 421.906)"/>
</clipPath>
</defs>
</svg>
