<svg width="1440" height="600" viewBox="0 0 1440 600" fill="none" xmlns="http://www.w3.org/2000/svg">
<g clip-path="url(#clip0_402_345)">
<g filter="url(#filter0_d_402_345)">
<path d="M0 346L26.72 355.7C53.28 365.3 106.72 384.7 160 396.7C213.28 408.7 266.72 413.3 320 405.5C373.28 397.7 426.72 377.3 480 377.7C533.28 378 586.72 399 640 400.5C693.28 402 746.72 384 800 387.7C853.28 391.3 906.72 416.7 960 422.5C1013.28 428.3 1066.72 414.7 1120 403.8C1173.28 393 1226.72 385 1280 385C1333.28 385 1386.72 393 1413.28 397L1440 401V601H1413.28C1386.72 601 1333.28 601 1280 601C1226.72 601 1173.28 601 1120 601C1066.72 601 1013.28 601 960 601C906.72 601 853.28 601 800 601C746.72 601 693.28 601 640 601C586.72 601 533.28 601 480 601C426.72 601 373.28 601 320 601C266.72 601 213.28 601 160 601C106.72 601 53.28 601 26.72 601H0V346Z" fill="#FFF8E5"/>
</g>
<mask id="mask0_402_345" style="mask-type:alpha" maskUnits="userSpaceOnUse" x="0" y="346" width="1440" height="255">
<path d="M0 346L26.72 355.7C53.28 365.3 106.72 384.7 160 396.7C213.28 408.7 266.72 413.3 320 405.5C373.28 397.7 426.72 377.3 480 377.7C533.28 378 586.72 399 640 400.5C693.28 402 746.72 384 800 387.7C853.28 391.3 906.72 416.7 960 422.5C1013.28 428.3 1066.72 414.7 1120 403.8C1173.28 393 1226.72 385 1280 385C1333.28 385 1386.72 393 1413.28 397L1440 401V601H1413.28C1386.72 601 1333.28 601 1280 601C1226.72 601 1173.28 601 1120 601C1066.72 601 1013.28 601 960 601C906.72 601 853.28 601 800 601C746.72 601 693.28 601 640 601C586.72 601 533.28 601 480 601C426.72 601 373.28 601 320 601C266.72 601 213.28 601 160 601C106.72 601 53.28 601 26.72 601H0V346Z" fill="#FFF8E5"/>
</mask>
<g mask="url(#mask0_402_345)">
<g clip-path="url(#clip1_402_345)">
<path d="M136.642 635.066L136.457 671.733L172.095 671.913L186.022 658.983L199.222 672.049L236.456 672.237L236.641 635.571L224.195 624.675L236.754 613.071L236.96 572.239L199.727 572.051L186.4 583.984L172.599 571.914L136.962 571.734L136.755 612.567L150.196 624.301L136.642 635.066Z" stroke="#EC255A" stroke-width="5"/>
<path d="M137.354 494.068L137.168 530.735L172.806 530.914L186.733 517.985L199.934 531.051L237.167 531.239L237.352 494.573L224.907 483.677L237.466 472.073L237.672 431.241L200.438 431.053L187.112 442.986L173.311 430.916L137.673 430.736L137.467 471.569L150.908 483.303L137.354 494.068Z" stroke="#EC255A" stroke-width="5"/>
<path d="M67.0012 563.714L66.8162 600.38L102.454 600.56L116.381 587.63L129.581 600.697L166.815 600.885L167 564.219L154.555 553.323L167.114 541.719L167.32 500.886L130.086 500.698L116.76 512.631L102.959 500.562L67.3209 500.382L67.1148 541.214L80.5557 552.949L67.0012 563.714Z" stroke="#EC255A" stroke-width="5"/>
<path d="M23.5243 536.829L23.9351 500.165L-11.701 499.765L-25.7075 512.609L-38.827 499.461L-76.0587 499.044L-76.4694 535.709L-64.0916 546.681L-76.7215 558.207L-77.1789 599.038L-39.9472 599.455L-26.5476 587.605L-12.8212 599.759L22.8148 600.158L23.2723 559.328L9.9038 547.51L23.5243 536.829Z" stroke="#EC255A" stroke-width="5"/>
<path d="M26.2357 395.841L26.6465 359.177L-8.98958 358.777L-22.996 371.621L-36.1155 358.473L-73.3472 358.056L-73.758 394.721L-61.3801 405.693L-74.01 417.219L-74.4675 458.05L-37.2358 458.467L-23.8362 446.616L-10.1098 458.771L25.5263 459.17L25.9837 418.339L12.6152 406.522L26.2357 395.841Z" stroke="#EC255A" stroke-width="5"/>
<path d="M95.7265 608.194L96.1372 571.53L60.5011 571.131L46.4947 583.975L33.3752 570.827L-3.85652 570.41L-4.26727 607.074L8.11058 618.047L-4.51932 629.573L-4.97675 670.404L32.255 670.821L45.6545 658.97L59.3809 671.125L95.017 671.524L95.4744 630.693L82.1059 618.876L95.7265 608.194Z" stroke="#EC255A" stroke-width="5"/>
<path d="M97.306 467.203L97.7168 430.539L62.0807 430.14L48.0743 442.983L34.9548 429.836L-2.27693 429.419L-2.68768 466.083L9.69017 477.056L-2.93973 488.582L-3.39716 529.412L33.8345 529.829L47.2341 517.979L60.9605 530.133L96.5966 530.533L97.054 489.702L83.6855 477.885L97.306 467.203Z" stroke="#EC255A" stroke-width="5"/>
<path d="M168.244 394.558L168.655 357.893L133.019 357.494L119.012 370.338L105.893 357.19L68.6611 356.773L68.2503 393.437L80.6282 404.41L67.9983 415.936L67.5408 456.767L104.773 457.184L118.172 445.333L131.898 457.488L167.535 457.887L167.992 417.056L154.624 405.239L168.244 394.558Z" stroke="#EC255A" stroke-width="5"/>
<path d="M137.075 351.065L136.89 387.731L172.528 387.911L186.455 374.981L199.655 388.048L236.889 388.236L237.074 351.57L224.629 340.673L237.187 329.07L237.394 288.237L200.16 288.049L186.834 299.982L173.033 287.912L137.395 287.732L137.189 328.565L150.63 340.3L137.075 351.065Z" stroke="#EC255A" stroke-width="5"/>
<path d="M207.984 567.426L207.799 604.092L243.437 604.272L257.364 591.342L270.564 604.409L307.798 604.597L307.983 567.931L295.538 557.034L308.096 545.431L308.303 504.598L271.069 504.41L257.743 516.343L243.942 504.273L208.304 504.093L208.098 544.926L221.539 556.661L207.984 567.426Z" stroke="#EC255A" stroke-width="5"/>
<path d="M207.706 424.422L207.521 461.089L243.159 461.268L257.086 448.339L270.286 461.405L307.52 461.593L307.705 424.927L295.26 414.031L307.818 402.427L308.024 361.595L270.791 361.407L257.465 373.34L243.664 361.27L208.026 361.09L207.82 401.923L221.261 413.657L207.706 424.422Z" stroke="#EC255A" stroke-width="5"/>
<path d="M276.64 635.773L276.455 672.439L312.093 672.619L326.02 659.689L339.22 672.756L376.454 672.944L376.639 636.278L364.194 625.382L376.752 613.778L376.959 572.945L339.725 572.758L326.399 584.69L312.598 572.621L276.96 572.441L276.754 613.274L290.195 625.008L276.64 635.773Z" stroke="#EC255A" stroke-width="5"/>
<path d="M277.352 494.775L277.167 531.441L312.805 531.621L326.732 518.691L339.932 531.758L377.165 531.946L377.351 495.28L364.905 484.383L377.464 472.78L377.67 431.947L340.437 431.759L327.11 443.692L313.309 431.622L277.671 431.442L277.465 472.275L290.906 484.01L277.352 494.775Z" stroke="#EC255A" stroke-width="5"/>
<path d="M277.073 351.772L276.888 388.438L312.526 388.618L326.453 375.688L339.654 388.755L376.887 388.943L377.072 352.277L364.627 341.38L377.186 329.777L377.392 288.944L340.158 288.756L326.832 300.689L313.031 288.619L277.393 288.439L277.187 329.272L290.628 341.007L277.073 351.772Z" stroke="#EC255A" stroke-width="5"/>
<path d="M346.992 566.127L346.807 602.793L382.445 602.973L396.372 590.043L409.573 603.11L446.806 603.298L446.991 566.632L434.546 555.736L447.105 544.132L447.311 503.299L410.077 503.112L396.751 515.044L382.95 502.975L347.312 502.795L347.106 543.628L360.547 555.362L346.992 566.127Z" stroke="#EC255A" stroke-width="5"/>
<path d="M346.714 423.124L346.529 459.79L382.167 459.97L396.094 447.04L409.294 460.107L446.528 460.295L446.713 423.629L434.268 412.733L446.827 401.129L447.033 360.296L409.799 360.108L396.473 372.041L382.672 359.971L347.034 359.792L346.828 400.624L360.269 412.359L346.714 423.124Z" stroke="#EC255A" stroke-width="5"/>
<path d="M418.648 634.49L418.463 671.156L454.101 671.336L468.028 658.406L481.229 671.473L518.462 671.661L518.647 634.995L506.202 624.098L518.761 612.495L518.967 571.662L481.733 571.474L468.407 583.407L454.606 571.337L418.968 571.157L418.762 611.99L432.203 623.725L418.648 634.49Z" stroke="#EC255A" stroke-width="5"/>
<path d="M419.36 493.492L419.175 530.158L454.813 530.338L468.74 517.408L481.94 530.475L519.174 530.663L519.359 493.996L506.914 483.1L519.472 471.497L519.679 430.664L482.445 430.476L469.119 442.409L455.318 430.339L419.68 430.159L419.474 470.992L432.915 482.727L419.36 493.492Z" stroke="#EC255A" stroke-width="5"/>
<path d="M419.082 350.489L418.897 387.155L454.535 387.335L468.462 374.405L481.662 387.472L518.895 387.66L519.081 350.993L506.635 340.097L519.194 328.494L519.4 287.661L482.167 287.473L468.84 299.406L455.039 287.336L419.401 287.156L419.195 327.989L432.636 339.724L419.082 350.489Z" stroke="#EC255A" stroke-width="5"/>
<path d="M489.016 561.844L488.831 598.51L524.469 598.69L538.396 585.76L551.596 598.827L588.83 599.015L589.015 562.349L576.569 551.452L589.128 539.849L589.334 499.016L552.101 498.828L538.774 510.761L524.973 498.691L489.336 498.512L489.129 539.344L502.57 551.079L489.016 561.844Z" stroke="#EC255A" stroke-width="5"/>
<path d="M488.738 418.841L488.553 455.507L524.191 455.687L538.118 442.757L551.318 455.824L588.551 456.012L588.737 419.346L576.291 408.449L588.85 396.846L589.056 356.013L551.823 355.825L538.496 367.758L524.695 355.688L489.057 355.508L488.851 396.341L502.292 408.076L488.738 418.841Z" stroke="#EC255A" stroke-width="5"/>
<path d="M558.667 631.197L558.482 667.863L594.12 668.043L608.047 655.113L621.247 668.18L658.48 668.368L658.665 631.701L646.22 620.805L658.779 609.202L658.985 568.369L621.752 568.181L608.425 580.114L594.624 568.044L558.986 567.864L558.78 608.697L572.221 620.432L558.667 631.197Z" stroke="#EC255A" stroke-width="5"/>
<path d="M559.378 490.198L559.193 526.865L594.831 527.044L608.758 514.115L621.959 527.181L659.192 527.369L659.377 490.703L646.932 479.807L659.491 468.203L659.697 427.37L622.463 427.183L609.137 439.115L595.336 427.046L559.698 426.866L559.492 467.699L572.933 479.433L559.378 490.198Z" stroke="#EC255A" stroke-width="5"/>
<path d="M559.1 347.195L558.915 383.861L594.553 384.041L608.48 371.111L621.68 384.178L658.914 384.366L659.099 347.7L646.654 336.804L659.213 325.2L659.419 284.367L622.185 284.179L608.859 296.112L595.058 284.042L559.42 283.863L559.214 324.695L572.655 336.43L559.1 347.195Z" stroke="#EC255A" stroke-width="5"/>
<path d="M558.667 631.197L558.482 667.863L594.12 668.043L608.047 655.113L621.247 668.18L658.48 668.368L658.665 631.701L646.22 620.805L658.779 609.202L658.985 568.369L621.752 568.181L608.425 580.114L594.624 568.044L558.986 567.864L558.78 608.697L572.221 620.432L558.667 631.197Z" stroke="#EC255A" stroke-width="5"/>
<path d="M559.378 490.198L559.193 526.865L594.831 527.044L608.758 514.115L621.959 527.181L659.192 527.369L659.377 490.703L646.932 479.807L659.491 468.203L659.697 427.37L622.463 427.183L609.137 439.115L595.336 427.046L559.698 426.866L559.492 467.699L572.933 479.433L559.378 490.198Z" stroke="#EC255A" stroke-width="5"/>
<path d="M559.1 347.195L558.915 383.861L594.553 384.041L608.48 371.111L621.68 384.178L658.914 384.366L659.099 347.7L646.654 336.804L659.213 325.2L659.419 284.367L622.185 284.179L608.859 296.112L595.058 284.042L559.42 283.863L559.214 324.695L572.655 336.43L559.1 347.195Z" stroke="#EC255A" stroke-width="5"/>
<path d="M631.014 562.561L630.829 599.227L666.467 599.407L680.394 586.477L693.594 599.544L730.828 599.732L731.013 563.066L718.568 552.169L731.126 540.566L731.333 499.733L694.099 499.545L680.773 511.478L666.972 499.408L631.334 499.228L631.128 540.061L644.569 551.796L631.014 562.561Z" stroke="#EC255A" stroke-width="5"/>
<path d="M630.736 419.558L630.551 456.224L666.189 456.404L680.116 443.474L693.316 456.541L730.55 456.729L730.735 420.062L718.289 409.166L730.848 397.563L731.054 356.73L693.821 356.542L680.494 368.475L666.693 356.405L631.056 356.225L630.849 397.058L644.29 408.793L630.736 419.558Z" stroke="#EC255A" stroke-width="5"/>
<path d="M700.665 631.913L700.48 668.58L736.118 668.759L750.045 655.83L763.245 668.896L800.479 669.084L800.664 632.418L788.219 621.522L800.777 609.918L800.983 569.086L763.75 568.898L750.424 580.831L736.623 568.761L700.985 568.581L700.779 609.414L714.22 621.148L700.665 631.913Z" stroke="#EC255A" stroke-width="5"/>
<path d="M701.377 490.915L701.192 527.581L736.829 527.761L750.757 514.831L763.957 527.898L801.19 528.086L801.375 491.42L788.93 480.524L801.489 468.92L801.695 428.087L764.462 427.899L751.135 439.832L737.334 427.762L701.696 427.583L701.49 468.415L714.931 480.15L701.377 490.915Z" stroke="#EC255A" stroke-width="5"/>
<path d="M701.098 347.912L700.913 384.578L736.551 384.758L750.478 371.828L763.678 384.895L800.912 385.083L801.097 348.417L788.652 337.52L801.211 325.917L801.417 285.084L764.183 284.896L750.857 296.829L737.056 284.759L701.418 284.579L701.212 325.412L714.653 337.147L701.098 347.912Z" stroke="#EC255A" stroke-width="5"/>
<path d="M771.012 563.267L770.827 599.934L806.465 600.113L820.392 587.184L833.593 600.25L870.826 600.438L871.011 563.772L858.566 552.876L871.125 541.272L871.331 500.44L834.097 500.252L820.771 512.185L806.97 500.115L771.332 499.935L771.126 540.768L784.567 552.502L771.012 563.267Z" stroke="#EC255A" stroke-width="5"/>
<path d="M770.734 420.264L770.549 456.93L806.187 457.11L820.114 444.18L833.314 457.247L870.548 457.435L870.733 420.769L858.288 409.873L870.846 398.269L871.053 357.436L833.819 357.248L820.493 369.181L806.692 357.112L771.054 356.932L770.848 397.765L784.289 409.499L770.734 420.264Z" stroke="#EC255A" stroke-width="5"/>
<path d="M98.5932 325.205L99.0039 288.541L63.3678 288.142L49.3614 300.985L36.2419 287.838L-0.989823 287.421L-1.40057 324.085L10.9773 335.058L-1.65263 346.583L-2.11005 387.414L35.1217 387.831L48.5212 375.981L62.2476 388.135L97.8837 388.535L98.3411 347.704L84.9726 335.887L98.5932 325.205Z" stroke="#EC255A" stroke-width="5"/>
</g>
<g clip-path="url(#clip2_402_345)">
<path d="M1363.29 459.735L1363.21 423.068L1327.57 423.144L1313.74 436.173L1300.44 423.202L1263.21 423.281L1263.29 459.948L1275.81 470.754L1263.33 482.447L1263.42 523.281L1300.66 523.201L1313.9 511.173L1327.78 523.144L1363.42 523.068L1363.33 482.235L1349.81 470.597L1363.29 459.735Z" stroke="#EC255A" stroke-width="5"/>
<path d="M1433.44 530.586L1433.36 493.919L1397.72 493.995L1383.89 507.024L1370.59 494.053L1333.36 494.132L1333.44 530.798L1345.96 541.605L1333.49 553.298L1333.57 594.132L1370.81 594.052L1384.05 582.024L1397.93 593.995L1433.57 593.919L1433.49 553.085L1419.96 541.448L1433.44 530.586Z" stroke="#EC255A" stroke-width="5"/>
<path d="M1433.14 389.586L1433.06 352.919L1397.42 352.995L1383.59 366.025L1370.29 353.053L1333.06 353.132L1333.14 389.799L1345.66 400.605L1333.19 412.299L1333.27 453.132L1370.51 453.053L1383.75 441.024L1397.63 452.995L1433.27 452.919L1433.19 412.086L1419.66 400.448L1433.14 389.586Z" stroke="#EC255A" stroke-width="5"/>
<path d="M1293.12 383.884L1293.05 347.217L1257.41 347.293L1243.57 360.323L1230.28 347.351L1193.05 347.43L1193.13 384.097L1205.65 394.903L1193.17 406.597L1193.26 447.43L1230.49 447.351L1243.73 435.322L1257.62 447.293L1293.26 447.217L1293.17 406.384L1279.65 394.746L1293.12 383.884Z" stroke="#EC255A" stroke-width="5"/>
<path d="M1293.44 530.883L1293.36 494.217L1257.72 494.293L1243.89 507.322L1230.59 494.35L1193.36 494.43L1193.44 531.096L1205.96 541.903L1193.49 553.596L1193.57 594.429L1230.81 594.35L1244.05 582.322L1257.93 594.292L1293.57 594.217L1293.49 553.383L1279.96 541.745L1293.44 530.883Z" stroke="#EC255A" stroke-width="5"/>
<path d="M1363.59 602.734L1363.51 566.068L1327.87 566.144L1314.04 579.173L1300.75 566.201L1263.51 566.281L1263.59 602.947L1276.11 613.754L1263.64 625.447L1263.73 666.28L1300.96 666.201L1314.2 654.173L1328.09 666.143L1363.73 666.068L1363.64 625.234L1350.11 613.596L1363.59 602.734Z" stroke="#EC255A" stroke-width="5"/>
<path d="M1406.26 628.309L1406.11 664.975L1441.75 665.119L1455.66 652.175L1468.88 665.228L1506.11 665.378L1506.26 628.712L1493.8 617.828L1506.35 606.212L1506.51 565.379L1469.28 565.229L1455.96 577.175L1442.15 565.12L1406.51 564.976L1406.35 605.809L1419.8 617.53L1406.26 628.309Z" stroke="#EC255A" stroke-width="5"/>
<path d="M1407.96 487.305L1407.81 523.971L1443.45 524.115L1457.36 511.171L1470.58 524.224L1507.81 524.374L1507.96 487.708L1495.5 476.824L1508.05 465.208L1508.21 424.375L1470.98 424.225L1457.66 436.171L1443.85 424.116L1408.21 423.972L1408.05 464.805L1421.5 476.526L1407.96 487.305Z" stroke="#EC255A" stroke-width="5"/>
<path d="M1222.58 600.035L1222.51 563.368L1186.87 563.444L1173.03 576.473L1159.74 563.502L1122.51 563.581L1122.59 600.247L1135.11 611.054L1122.63 622.747L1122.72 663.581L1159.95 663.501L1173.19 651.473L1187.08 663.444L1222.72 663.368L1222.63 622.534L1209.11 610.897L1222.58 600.035Z" stroke="#EC255A" stroke-width="5"/>
<path d="M1221.97 311.035L1221.89 274.368L1186.25 274.444L1172.42 287.474L1159.13 274.502L1121.89 274.581L1121.97 311.248L1134.49 322.055L1122.02 333.748L1122.1 374.581L1159.34 374.502L1172.58 362.474L1186.47 374.444L1222.1 374.368L1222.02 333.535L1208.49 321.897L1221.97 311.035Z" stroke="#EC255A" stroke-width="5"/>
<path d="M1222.28 458.035L1222.2 421.368L1186.57 421.444L1172.73 434.473L1159.44 421.502L1122.2 421.581L1122.28 458.248L1134.81 469.054L1122.33 480.748L1122.42 521.581L1159.65 521.502L1172.89 509.473L1186.78 521.444L1222.42 521.368L1222.33 480.535L1208.81 468.897L1222.28 458.035Z" stroke="#EC255A" stroke-width="5"/>
<path d="M1153.13 384.182L1153.05 347.515L1117.41 347.591L1103.58 360.62L1090.28 347.649L1053.05 347.728L1053.13 384.395L1065.65 395.201L1053.17 406.895L1053.26 447.728L1090.49 447.649L1103.73 435.62L1117.62 447.591L1153.26 447.515L1153.17 406.682L1139.65 395.044L1153.13 384.182Z" stroke="#EC255A" stroke-width="5"/>
<path d="M1153.44 531.181L1153.36 494.515L1117.72 494.591L1103.89 507.62L1090.59 494.648L1053.36 494.728L1053.44 531.394L1065.96 542.201L1053.49 553.894L1053.57 594.728L1090.81 594.648L1104.05 582.62L1117.93 594.591L1153.57 594.515L1153.49 553.681L1139.96 542.044L1153.44 531.181Z" stroke="#EC255A" stroke-width="5"/>
<path d="M1083.59 602.33L1083.51 565.664L1047.87 565.74L1034.04 578.769L1020.75 565.797L983.512 565.877L983.59 602.543L996.113 613.35L983.638 625.043L983.725 665.876L1020.96 665.797L1034.2 653.769L1048.09 665.739L1083.72 665.664L1083.64 624.83L1070.11 613.192L1083.59 602.33Z" stroke="#EC255A" stroke-width="5"/>
<path d="M1082.97 313.331L1082.9 276.664L1047.26 276.74L1033.42 289.77L1020.13 276.798L982.896 276.877L982.975 313.544L995.498 324.35L983.022 336.044L983.109 376.877L1020.34 376.798L1033.58 364.769L1047.47 376.74L1083.11 376.664L1083.02 335.831L1069.5 324.193L1082.97 313.331Z" stroke="#EC255A" stroke-width="5"/>
<path d="M1083.29 460.331L1083.21 423.664L1047.57 423.74L1033.74 436.769L1020.44 423.798L983.209 423.877L983.287 460.543L995.811 471.35L983.335 483.043L983.422 523.877L1020.66 523.797L1033.9 511.769L1047.78 523.74L1083.42 523.664L1083.34 482.831L1069.81 471.193L1083.29 460.331Z" stroke="#EC255A" stroke-width="5"/>
<path d="M1011.13 386.484L1011.05 349.817L975.414 349.893L961.58 362.923L948.286 349.951L911.052 350.03L911.13 386.697L923.653 397.504L911.178 409.197L911.265 450.03L948.499 449.951L961.739 437.923L975.626 449.893L1011.26 449.817L1011.18 408.984L997.653 397.346L1011.13 386.484Z" stroke="#EC255A" stroke-width="5"/>
<path d="M1011.44 533.484L1011.36 496.817L975.727 496.893L961.893 509.922L948.599 496.951L911.365 497.03L911.443 533.697L923.966 544.503L911.491 556.197L911.578 597.03L948.812 596.951L962.052 584.922L975.939 596.893L1011.58 596.817L1011.49 555.984L997.966 544.346L1011.44 533.484Z" stroke="#EC255A" stroke-width="5"/>
<path d="M941.601 607.632L941.522 570.966L905.884 571.042L892.05 584.071L878.757 571.099L841.523 571.179L841.601 607.845L854.124 618.652L841.649 630.345L841.736 671.178L878.969 671.099L892.21 659.071L906.097 671.041L941.735 670.966L941.648 630.132L928.124 618.494L941.601 607.632Z" stroke="#EC255A" stroke-width="5"/>
<path d="M940.985 318.633L940.907 281.967L905.269 282.042L891.435 295.072L878.141 282.1L840.907 282.179L840.985 318.846L853.509 329.653L841.033 341.346L841.12 382.179L878.354 382.1L891.595 370.072L905.482 382.042L941.12 381.966L941.033 341.133L927.508 329.495L940.985 318.633Z" stroke="#EC255A" stroke-width="5"/>
<path d="M941.298 465.633L941.22 428.966L905.582 429.042L891.748 442.072L878.454 429.1L841.22 429.179L841.298 465.846L853.822 476.652L841.346 488.346L841.433 529.179L878.667 529.1L891.908 517.071L905.795 529.042L941.433 528.966L941.346 488.133L927.821 476.495L941.298 465.633Z" stroke="#EC255A" stroke-width="5"/>
<path d="M871.139 390.782L871.061 354.115L835.423 354.191L821.589 367.221L808.295 354.249L771.061 354.328L771.139 390.995L783.662 401.802L771.187 413.495L771.274 454.328L808.508 454.249L821.748 442.221L835.635 454.191L871.274 454.115L871.187 413.282L857.662 401.644L871.139 390.782Z" stroke="#EC255A" stroke-width="5"/>
<path d="M871.452 537.782L871.374 501.115L835.735 501.191L821.901 514.22L808.608 501.249L771.374 501.328L771.452 537.994L783.975 548.801L771.5 560.494L771.587 601.328L808.821 601.248L822.061 589.22L835.948 601.191L871.586 601.115L871.499 560.282L857.975 548.644L871.452 537.782Z" stroke="#EC255A" stroke-width="5"/>
<path d="M871.139 390.782L871.061 354.115L835.423 354.191L821.589 367.221L808.295 354.249L771.061 354.328L771.139 390.995L783.662 401.802L771.187 413.495L771.274 454.328L808.508 454.249L821.748 442.221L835.635 454.191L871.274 454.115L871.187 413.282L857.662 401.644L871.139 390.782Z" stroke="#EC255A" stroke-width="5"/>
<path d="M871.452 537.782L871.374 501.115L835.735 501.191L821.901 514.22L808.608 501.249L771.374 501.328L771.452 537.994L783.975 548.801L771.5 560.494L771.587 601.328L808.821 601.248L822.061 589.22L835.948 601.191L871.586 601.115L871.499 560.282L857.975 548.644L871.452 537.782Z" stroke="#EC255A" stroke-width="5"/>
<path d="M1403.65 344.314L1403.51 380.98L1439.14 381.124L1453.06 368.18L1466.27 381.233L1503.5 381.383L1503.65 344.717L1491.2 333.833L1503.74 322.217L1503.91 281.384L1466.67 281.234L1453.36 293.18L1439.55 281.125L1403.91 280.981L1403.74 321.814L1417.2 333.535L1403.65 344.314Z" stroke="#EC255A" stroke-width="5"/>
<path d="M1263.64 337.612L1263.49 374.278L1299.13 374.422L1313.04 361.478L1326.26 374.531L1363.49 374.681L1363.64 338.015L1351.18 327.131L1363.73 315.515L1363.89 274.682L1326.66 274.532L1313.34 286.478L1299.53 274.423L1263.89 274.279L1263.73 315.112L1277.18 326.833L1263.64 337.612Z" stroke="#EC255A" stroke-width="5"/>
<path d="M1263.64 337.612L1263.49 374.278L1299.13 374.422L1313.04 361.478L1326.26 374.531L1363.49 374.681L1363.64 338.015L1351.18 327.131L1363.73 315.515L1363.89 274.682L1326.66 274.532L1313.34 286.478L1299.53 274.423L1263.89 274.279L1263.73 315.112L1277.18 326.833L1263.64 337.612Z" stroke="#EC255A" stroke-width="5"/>
</g>
</g>
<path d="M0 473L26.72 467.5C53.28 462 106.72 451 160 443.8C213.28 436.7 266.72 433.3 320 443.2C373.28 453 426.72 476 480 490.2C533.28 504.3 586.72 509.7 640 507C693.28 504.3 746.72 493.7 800 490C853.28 486.3 906.72 489.7 960 485.7C1013.28 481.7 1066.72 470.3 1120 460.5C1173.28 450.7 1226.72 442.3 1280 445.5C1333.28 448.7 1386.72 463.3 1413.28 470.7L1440 478V601H1413.28C1386.72 601 1333.28 601 1280 601C1226.72 601 1173.28 601 1120 601C1066.72 601 1013.28 601 960 601C906.72 601 853.28 601 800 601C746.72 601 693.28 601 640 601C586.72 601 533.28 601 480 601C426.72 601 373.28 601 320 601C266.72 601 213.28 601 160 601C106.72 601 53.28 601 26.72 601H0V473Z" fill="#A8CCA9"/>
<mask id="mask1_402_345" style="mask-type:alpha" maskUnits="userSpaceOnUse" x="0" y="437" width="1440" height="164">
<path d="M0 473L26.72 467.5C53.28 462 106.72 451 160 443.8C213.28 436.7 266.72 433.3 320 443.2C373.28 453 426.72 476 480 490.2C533.28 504.3 586.72 509.7 640 507C693.28 504.3 746.72 493.7 800 490C853.28 486.3 906.72 489.7 960 485.7C1013.28 481.7 1066.72 470.3 1120 460.5C1173.28 450.7 1226.72 442.3 1280 445.5C1333.28 448.7 1386.72 463.3 1413.28 470.7L1440 478V601H1413.28C1386.72 601 1333.28 601 1280 601C1226.72 601 1173.28 601 1120 601C1066.72 601 1013.28 601 960 601C906.72 601 853.28 601 800 601C746.72 601 693.28 601 640 601C586.72 601 533.28 601 480 601C426.72 601 373.28 601 320 601C266.72 601 213.28 601 160 601C106.72 601 53.28 601 26.72 601H0V473Z" fill="#A8CCA9"/>
</mask>
<g mask="url(#mask1_402_345)">
<g clip-path="url(#clip3_402_345)">
<path d="M137.354 593.068L137.168 629.735L172.806 629.914L186.733 616.985L199.934 630.051L237.167 630.239L237.352 593.573L224.907 582.677L237.466 571.073L237.672 530.241L200.438 530.053L187.112 541.986L173.311 529.916L137.673 529.736L137.467 570.569L150.908 582.303L137.354 593.068Z" stroke="#00A19D" stroke-width="5"/>
<path d="M67.0012 662.714L66.8162 699.38L102.454 699.56L116.381 686.63L129.581 699.697L166.815 699.885L167 663.219L154.555 652.323L167.114 640.719L167.32 599.886L130.086 599.698L116.76 611.631L102.959 599.562L67.3209 599.382L67.1148 640.214L80.5557 651.949L67.0012 662.714Z" stroke="#00A19D" stroke-width="5"/>
<path d="M23.5243 635.829L23.9351 599.165L-11.701 598.765L-25.7075 611.609L-38.827 598.461L-76.0587 598.044L-76.4694 634.709L-64.0916 645.681L-76.7215 657.207L-77.1789 698.038L-39.9472 698.455L-26.5476 686.605L-12.8212 698.759L22.8148 699.158L23.2723 658.328L9.9038 646.51L23.5243 635.829Z" stroke="#00A19D" stroke-width="5"/>
<path d="M26.2357 494.841L26.6465 458.177L-8.98958 457.777L-22.996 470.621L-36.1155 457.473L-73.3472 457.056L-73.758 493.721L-61.3801 504.693L-74.01 516.219L-74.4675 557.05L-37.2358 557.467L-23.8362 545.616L-10.1098 557.771L25.5263 558.17L25.9837 517.339L12.6152 505.522L26.2357 494.841Z" stroke="#00A19D" stroke-width="5"/>
<path d="M97.306 566.203L97.7168 529.539L62.0807 529.14L48.0743 541.983L34.9548 528.836L-2.27693 528.419L-2.68768 565.083L9.69017 576.056L-2.93973 587.582L-3.39716 628.412L33.8345 628.829L47.2341 616.979L60.9605 629.133L96.5966 629.533L97.054 588.702L83.6855 576.885L97.306 566.203Z" stroke="#00A19D" stroke-width="5"/>
<path d="M168.244 493.558L168.655 456.893L133.019 456.494L119.012 469.338L105.893 456.19L68.6611 455.773L68.2503 492.437L80.6282 503.41L67.9983 514.936L67.5408 555.767L104.773 556.184L118.172 544.333L131.898 556.488L167.535 556.887L167.992 516.056L154.624 504.239L168.244 493.558Z" stroke="#00A19D" stroke-width="5"/>
<path d="M137.075 450.065L136.89 486.731L172.528 486.911L186.455 473.981L199.655 487.048L236.889 487.236L237.074 450.57L224.629 439.673L237.187 428.07L237.394 387.237L200.16 387.049L186.834 398.982L173.033 386.912L137.395 386.732L137.189 427.565L150.63 439.3L137.075 450.065Z" stroke="#00A19D" stroke-width="5"/>
<path d="M207.706 523.422L207.521 560.089L243.159 560.268L257.086 547.339L270.286 560.405L307.52 560.593L307.705 523.927L295.26 513.031L307.818 501.427L308.024 460.595L270.791 460.407L257.465 472.34L243.664 460.27L208.026 460.09L207.82 500.923L221.261 512.657L207.706 523.422Z" stroke="#00A19D" stroke-width="5"/>
<path d="M277.352 593.775L277.167 630.441L312.805 630.621L326.732 617.691L339.932 630.758L377.165 630.946L377.351 594.28L364.905 583.383L377.464 571.78L377.67 530.947L340.437 530.759L327.11 542.692L313.309 530.622L277.671 530.442L277.465 571.275L290.906 583.01L277.352 593.775Z" stroke="#00A19D" stroke-width="5"/>
<path d="M277.073 450.772L276.888 487.438L312.526 487.618L326.453 474.688L339.654 487.755L376.887 487.943L377.072 451.277L364.627 440.38L377.186 428.777L377.392 387.944L340.158 387.756L326.832 399.689L313.031 387.619L277.393 387.439L277.187 428.272L290.628 440.007L277.073 450.772Z" stroke="#00A19D" stroke-width="5"/>
<path d="M346.992 665.127L346.807 701.793L382.445 701.973L396.372 689.043L409.573 702.11L446.806 702.298L446.991 665.632L434.546 654.736L447.105 643.132L447.311 602.299L410.077 602.112L396.751 614.044L382.95 601.975L347.312 601.795L347.106 642.628L360.547 654.362L346.992 665.127Z" stroke="#00A19D" stroke-width="5"/>
<path d="M346.714 522.124L346.529 558.79L382.167 558.97L396.094 546.04L409.294 559.107L446.528 559.295L446.713 522.629L434.268 511.733L446.827 500.129L447.033 459.296L409.799 459.108L396.473 471.041L382.672 458.971L347.034 458.792L346.828 499.624L360.269 511.359L346.714 522.124Z" stroke="#00A19D" stroke-width="5"/>
<path d="M419.36 592.492L419.175 629.158L454.813 629.338L468.74 616.408L481.94 629.475L519.174 629.663L519.359 592.996L506.914 582.1L519.472 570.497L519.679 529.664L482.445 529.476L469.119 541.409L455.318 529.339L419.68 529.159L419.474 569.992L432.915 581.727L419.36 592.492Z" stroke="#00A19D" stroke-width="5"/>
<path d="M419.082 449.489L418.897 486.155L454.535 486.335L468.462 473.405L481.662 486.472L518.895 486.66L519.081 449.993L506.635 439.097L519.194 427.494L519.4 386.661L482.167 386.473L468.84 398.406L455.039 386.336L419.401 386.156L419.195 426.989L432.636 438.724L419.082 449.489Z" stroke="#00A19D" stroke-width="5"/>
<path d="M489.016 660.844L488.831 697.51L524.469 697.69L538.396 684.76L551.596 697.827L588.83 698.015L589.015 661.349L576.569 650.452L589.128 638.849L589.334 598.016L552.101 597.828L538.774 609.761L524.973 597.691L489.336 597.512L489.129 638.344L502.57 650.079L489.016 660.844Z" stroke="#00A19D" stroke-width="5"/>
<path d="M488.738 517.841L488.553 554.507L524.191 554.687L538.118 541.757L551.318 554.824L588.551 555.012L588.737 518.346L576.291 507.449L588.85 495.846L589.056 455.013L551.823 454.825L538.496 466.758L524.695 454.688L489.057 454.508L488.851 495.341L502.292 507.076L488.738 517.841Z" stroke="#00A19D" stroke-width="5"/>
<path d="M559.378 589.198L559.193 625.865L594.831 626.044L608.758 613.115L621.959 626.181L659.192 626.369L659.377 589.703L646.932 578.807L659.491 567.203L659.697 526.37L622.463 526.183L609.137 538.115L595.336 526.046L559.698 525.866L559.492 566.699L572.933 578.433L559.378 589.198Z" stroke="#00A19D" stroke-width="5"/>
<path d="M559.1 446.195L558.915 482.861L594.553 483.041L608.48 470.111L621.68 483.178L658.914 483.366L659.099 446.7L646.654 435.804L659.213 424.2L659.419 383.367L622.185 383.179L608.859 395.112L595.058 383.042L559.42 382.863L559.214 423.695L572.655 435.43L559.1 446.195Z" stroke="#00A19D" stroke-width="5"/>
<path d="M559.378 589.198L559.193 625.865L594.831 626.044L608.758 613.115L621.959 626.181L659.192 626.369L659.377 589.703L646.932 578.807L659.491 567.203L659.697 526.37L622.463 526.183L609.137 538.115L595.336 526.046L559.698 525.866L559.492 566.699L572.933 578.433L559.378 589.198Z" stroke="#00A19D" stroke-width="5"/>
<path d="M559.1 446.195L558.915 482.861L594.553 483.041L608.48 470.111L621.68 483.178L658.914 483.366L659.099 446.7L646.654 435.804L659.213 424.2L659.419 383.367L622.185 383.179L608.859 395.112L595.058 383.042L559.42 382.863L559.214 423.695L572.655 435.43L559.1 446.195Z" stroke="#00A19D" stroke-width="5"/>
<path d="M631.014 661.561L630.829 698.227L666.467 698.407L680.394 685.477L693.594 698.544L730.828 698.732L731.013 662.066L718.568 651.169L731.126 639.566L731.333 598.733L694.099 598.545L680.773 610.478L666.972 598.408L631.334 598.228L631.128 639.061L644.569 650.796L631.014 661.561Z" stroke="#00A19D" stroke-width="5"/>
<path d="M630.736 518.558L630.551 555.224L666.189 555.404L680.116 542.474L693.316 555.541L730.55 555.729L730.735 519.062L718.289 508.166L730.848 496.563L731.054 455.73L693.821 455.542L680.494 467.475L666.693 455.405L631.056 455.225L630.849 496.058L644.29 507.793L630.736 518.558Z" stroke="#00A19D" stroke-width="5"/>
<path d="M701.377 589.915L701.192 626.581L736.829 626.761L750.757 613.831L763.957 626.898L801.19 627.086L801.375 590.42L788.93 579.524L801.489 567.92L801.695 527.087L764.462 526.899L751.135 538.832L737.334 526.762L701.696 526.583L701.49 567.415L714.931 579.15L701.377 589.915Z" stroke="#00A19D" stroke-width="5"/>
<path d="M701.098 446.912L700.913 483.578L736.551 483.758L750.478 470.828L763.678 483.895L800.912 484.083L801.097 447.417L788.652 436.52L801.211 424.917L801.417 384.084L764.183 383.896L750.857 395.829L737.056 383.759L701.418 383.579L701.212 424.412L714.653 436.147L701.098 446.912Z" stroke="#00A19D" stroke-width="5"/>
<path d="M771.012 662.267L770.827 698.934L806.465 699.113L820.392 686.184L833.593 699.25L870.826 699.438L871.011 662.772L858.566 651.876L871.125 640.272L871.331 599.44L834.097 599.252L820.771 611.185L806.97 599.115L771.332 598.935L771.126 639.768L784.567 651.502L771.012 662.267Z" stroke="#00A19D" stroke-width="5"/>
<path d="M770.734 519.264L770.549 555.93L806.187 556.11L820.114 543.18L833.314 556.247L870.548 556.435L870.733 519.769L858.288 508.873L870.846 497.269L871.053 456.436L833.819 456.248L820.493 468.181L806.692 456.112L771.054 455.932L770.848 496.765L784.289 508.499L770.734 519.264Z" stroke="#00A19D" stroke-width="5"/>
<path d="M98.5932 424.205L99.0039 387.541L63.3678 387.142L49.3614 399.985L36.2419 386.838L-0.989823 386.421L-1.40057 423.085L10.9773 434.058L-1.65263 445.583L-2.11005 486.414L35.1217 486.831L48.5212 474.981L62.2476 487.135L97.8837 487.535L98.3411 446.704L84.9726 434.887L98.5932 424.205Z" stroke="#00A19D" stroke-width="5"/>
</g>
<g clip-path="url(#clip4_402_345)">
<path d="M1352.29 558.736L1352.22 522.069L1316.58 522.146L1302.74 535.175L1289.45 522.204L1252.22 522.284L1252.29 558.95L1264.82 569.757L1252.34 581.45L1252.43 622.284L1289.66 622.204L1302.9 610.175L1316.79 622.146L1352.43 622.069L1352.34 581.236L1338.82 569.598L1352.29 558.736Z" stroke="#00A19D" stroke-width="5"/>
<path d="M1422.44 629.586L1422.37 592.919L1386.73 592.995L1372.89 606.025L1359.6 593.054L1322.37 593.133L1322.44 629.8L1334.97 640.606L1322.49 652.3L1322.58 693.133L1359.81 693.053L1373.05 681.025L1386.94 692.995L1422.58 692.919L1422.49 652.085L1408.97 640.448L1422.44 629.586Z" stroke="#00A19D" stroke-width="5"/>
<path d="M1422.15 488.586L1422.07 451.919L1386.43 451.996L1372.6 465.026L1359.3 452.054L1322.07 452.134L1322.15 488.8L1334.67 499.607L1322.19 511.3L1322.28 552.134L1359.51 552.054L1372.76 540.025L1386.64 551.996L1422.28 551.919L1422.19 511.086L1408.67 499.448L1422.15 488.586Z" stroke="#00A19D" stroke-width="5"/>
<path d="M1282.13 482.886L1282.06 446.22L1246.42 446.296L1232.58 459.326L1219.29 446.354L1182.06 446.434L1182.13 483.101L1194.66 493.907L1182.18 505.601L1182.27 546.434L1219.5 546.354L1232.74 534.326L1246.63 546.296L1282.27 546.22L1282.18 505.386L1268.66 493.749L1282.13 482.886Z" stroke="#00A19D" stroke-width="5"/>
<path d="M1282.44 629.886L1282.37 593.219L1246.73 593.296L1232.89 606.325L1219.6 593.354L1182.37 593.434L1182.44 630.1L1194.97 640.907L1182.49 652.6L1182.58 693.433L1219.81 693.354L1233.05 681.325L1246.94 693.295L1282.58 693.219L1282.49 652.386L1268.97 640.748L1282.44 629.886Z" stroke="#00A19D" stroke-width="5"/>
<path d="M1396.96 586.306L1396.82 622.972L1432.45 623.115L1446.37 610.171L1459.58 623.224L1496.82 623.373L1496.96 586.707L1484.51 575.823L1497.06 564.207L1497.22 523.374L1459.99 523.224L1446.67 535.171L1432.86 523.116L1397.22 522.973L1397.06 563.806L1410.51 575.526L1396.96 586.306Z" stroke="#00A19D" stroke-width="5"/>
<path d="M1210.98 410.039L1210.9 373.372L1175.26 373.449L1161.43 386.478L1148.14 373.507L1110.9 373.587L1110.98 410.253L1123.5 421.06L1111.03 432.753L1111.11 473.586L1148.35 473.506L1161.59 461.478L1175.48 473.448L1211.11 473.372L1211.03 432.539L1197.5 420.901L1210.98 410.039Z" stroke="#00A19D" stroke-width="5"/>
<path d="M1211.29 557.038L1211.21 520.372L1175.57 520.448L1161.74 533.478L1148.45 520.506L1111.21 520.586L1111.29 557.253L1123.81 568.059L1111.34 579.753L1111.42 620.586L1148.66 620.506L1161.9 608.478L1175.79 620.448L1211.42 620.372L1211.34 579.538L1197.81 567.901L1211.29 557.038Z" stroke="#00A19D" stroke-width="5"/>
<path d="M1142.13 483.186L1142.06 446.52L1106.42 446.596L1092.58 459.626L1079.29 446.654L1042.06 446.734L1042.13 483.401L1054.66 494.207L1042.18 505.901L1042.27 546.734L1079.5 546.654L1092.74 534.626L1106.63 546.596L1142.27 546.52L1142.18 505.686L1128.66 494.049L1142.13 483.186Z" stroke="#00A19D" stroke-width="5"/>
<path d="M1142.45 630.186L1142.37 593.52L1106.73 593.596L1092.9 606.626L1079.6 593.654L1042.37 593.734L1042.45 630.401L1054.97 641.207L1042.49 652.901L1042.58 693.734L1079.81 693.654L1093.05 681.625L1106.94 693.596L1142.58 693.519L1142.49 652.686L1128.97 641.048L1142.45 630.186Z" stroke="#00A19D" stroke-width="5"/>
<path d="M1071.98 412.337L1071.91 375.67L1036.27 375.747L1022.43 388.776L1009.14 375.805L971.907 375.885L971.985 412.551L984.508 423.358L972.032 435.051L972.119 475.884L1009.35 475.805L1022.59 463.776L1036.48 475.746L1072.12 475.67L1072.03 434.837L1058.51 423.199L1071.98 412.337Z" stroke="#00A19D" stroke-width="5"/>
<path d="M1072.3 559.337L1072.22 522.67L1036.58 522.746L1022.75 535.776L1009.45 522.805L972.218 522.884L972.295 559.551L984.818 570.357L972.343 582.051L972.429 622.884L1009.66 622.804L1022.9 610.776L1036.79 622.746L1072.43 622.67L1072.34 581.836L1058.82 570.199L1072.3 559.337Z" stroke="#00A19D" stroke-width="5"/>
<path d="M1000.14 485.491L1000.06 448.824L964.423 448.901L950.589 461.931L937.296 448.959L900.062 449.039L900.139 485.706L912.662 496.512L900.187 508.205L900.273 549.039L937.507 548.959L950.748 536.93L964.635 548.901L1000.27 548.824L1000.19 507.991L986.662 496.353L1000.14 485.491Z" stroke="#00A19D" stroke-width="5"/>
<path d="M1000.45 632.491L1000.37 595.824L964.734 595.9L950.9 608.93L937.606 595.959L900.372 596.038L900.45 632.705L912.973 643.512L900.497 655.205L900.584 696.038L937.817 695.958L951.058 683.93L964.945 695.9L1000.58 695.824L1000.5 654.991L986.972 643.353L1000.45 632.491Z" stroke="#00A19D" stroke-width="5"/>
<path d="M929.996 417.641L929.918 380.975L894.28 381.051L880.446 394.081L867.152 381.109L829.918 381.189L829.996 417.856L842.519 428.662L830.043 440.356L830.13 481.189L867.364 481.109L880.604 469.081L894.491 481.051L930.129 480.974L930.043 440.141L916.519 428.503L929.996 417.641Z" stroke="#00A19D" stroke-width="5"/>
<path d="M930.306 564.641L930.229 527.974L894.591 528.051L880.756 541.08L867.463 528.109L830.229 528.189L830.306 564.855L842.829 575.662L830.354 587.355L830.44 628.189L867.674 628.109L880.915 616.08L894.802 628.051L930.44 627.974L930.354 587.141L916.829 575.503L930.306 564.641Z" stroke="#00A19D" stroke-width="5"/>
<path d="M860.148 489.791L860.07 453.125L824.432 453.201L810.598 466.231L797.305 453.259L760.071 453.339L760.148 490.006L772.671 500.812L760.196 512.506L760.282 553.339L797.516 553.259L810.756 541.231L824.643 553.201L860.282 553.125L860.195 512.291L846.671 500.654L860.148 489.791Z" stroke="#00A19D" stroke-width="5"/>
<path d="M860.458 636.791L860.381 600.124L824.743 600.201L810.908 613.23L797.615 600.259L760.381 600.339L760.459 637.005L772.981 647.812L760.506 659.505L760.592 700.339L797.826 700.259L811.067 688.23L824.954 700.2L860.592 700.124L860.506 659.291L846.981 647.653L860.458 636.791Z" stroke="#00A19D" stroke-width="5"/>
<path d="M860.148 489.791L860.07 453.125L824.432 453.201L810.598 466.231L797.305 453.259L760.071 453.339L760.148 490.006L772.671 500.812L760.196 512.506L760.282 553.339L797.516 553.259L810.756 541.231L824.643 553.201L860.282 553.125L860.195 512.291L846.671 500.654L860.148 489.791Z" stroke="#00A19D" stroke-width="5"/>
<path d="M860.458 636.791L860.381 600.124L824.743 600.201L810.908 613.23L797.615 600.259L760.381 600.339L760.459 637.005L772.981 647.812L760.506 659.505L760.592 700.339L797.826 700.259L811.067 688.23L824.954 700.2L860.592 700.124L860.506 659.291L846.981 647.653L860.458 636.791Z" stroke="#00A19D" stroke-width="5"/>
<path d="M1392.66 443.315L1392.51 479.981L1428.15 480.124L1442.07 467.18L1455.28 480.233L1492.51 480.382L1492.66 443.716L1480.21 432.832L1492.75 421.216L1492.92 380.383L1455.68 380.233L1442.37 392.18L1428.56 380.125L1392.92 379.982L1392.75 420.815L1406.21 432.535L1392.66 443.315Z" stroke="#00A19D" stroke-width="5"/>
<path d="M1252.65 436.615L1252.5 473.281L1288.14 473.424L1302.05 460.48L1315.27 473.533L1352.5 473.682L1352.65 437.016L1340.19 426.132L1352.74 414.516L1352.9 373.683L1315.67 373.534L1302.36 385.48L1288.54 373.425L1252.9 373.282L1252.74 414.115L1266.19 425.836L1252.65 436.615Z" stroke="#00A19D" stroke-width="5"/>
<path d="M1252.65 436.615L1252.5 473.281L1288.14 473.424L1302.05 460.48L1315.27 473.533L1352.5 473.682L1352.65 437.016L1340.19 426.132L1352.74 414.516L1352.9 373.683L1315.67 373.534L1302.36 385.48L1288.54 373.425L1252.9 373.282L1252.74 414.115L1266.19 425.836L1252.65 436.615Z" stroke="#00A19D" stroke-width="5"/>
</g>
</g>
<path d="M0 534L26.72 536.5C53.28 539 106.72 544 160 547C213.28 550 266.72 551 320 542.3C373.28 533.7 426.72 515.3 480 514.3C533.28 513.3 586.72 529.7 640 531C693.28 532.3 746.72 518.7 800 519.8C853.28 521 906.72 537 960 545C1013.28 553 1066.72 553 1120 541.7C1173.28 530.3 1226.72 507.7 1280 504.5C1333.28 501.3 1386.72 517.7 1413.28 525.8L1440 534V601H1413.28C1386.72 601 1333.28 601 1280 601C1226.72 601 1173.28 601 1120 601C1066.72 601 1013.28 601 960 601C906.72 601 853.28 601 800 601C746.72 601 693.28 601 640 601C586.72 601 533.28 601 480 601C426.72 601 373.28 601 320 601C266.72 601 213.28 601 160 601C106.72 601 53.28 601 26.72 601H0V534Z" fill="#00A19D"/>
<mask id="mask2_402_345" style="mask-type:alpha" maskUnits="userSpaceOnUse" x="0" y="504" width="1440" height="97">
<path d="M0 534L26.72 536.5C53.28 539 106.72 544 160 547C213.28 550 266.72 551 320 542.3C373.28 533.7 426.72 515.3 480 514.3C533.28 513.3 586.72 529.7 640 531C693.28 532.3 746.72 518.7 800 519.8C853.28 521 906.72 537 960 545C1013.28 553 1066.72 553 1120 541.7C1173.28 530.3 1226.72 507.7 1280 504.5C1333.28 501.3 1386.72 517.7 1413.28 525.8L1440 534V601H1413.28C1386.72 601 1333.28 601 1280 601C1226.72 601 1173.28 601 1120 601C1066.72 601 1013.28 601 960 601C906.72 601 853.28 601 800 601C746.72 601 693.28 601 640 601C586.72 601 533.28 601 480 601C426.72 601 373.28 601 320 601C266.72 601 213.28 601 160 601C106.72 601 53.28 601 26.72 601H0V534Z" fill="#00A19D"/>
</mask>
<g mask="url(#mask2_402_345)">
<g clip-path="url(#clip5_402_345)">
<path d="M137.354 593.068L137.168 629.735L172.806 629.914L186.733 616.985L199.934 630.051L237.167 630.239L237.352 593.573L224.907 582.677L237.466 571.073L237.672 530.241L200.438 530.053L187.112 541.986L173.311 529.916L137.673 529.736L137.467 570.569L150.908 582.303L137.354 593.068Z" stroke="#FFF8E5" stroke-width="5"/>
<path d="M67.0012 662.714L66.8162 699.38L102.454 699.56L116.381 686.63L129.581 699.697L166.815 699.885L167 663.219L154.555 652.323L167.114 640.719L167.32 599.886L130.086 599.698L116.76 611.631L102.959 599.562L67.3209 599.382L67.1148 640.214L80.5557 651.949L67.0012 662.714Z" stroke="#FFF8E5" stroke-width="5"/>
<path d="M23.5243 635.829L23.9351 599.165L-11.701 598.765L-25.7075 611.609L-38.827 598.461L-76.0587 598.044L-76.4694 634.709L-64.0916 645.681L-76.7215 657.207L-77.1789 698.038L-39.9472 698.455L-26.5476 686.605L-12.8212 698.759L22.8148 699.158L23.2723 658.328L9.9038 646.51L23.5243 635.829Z" stroke="#FFF8E5" stroke-width="5"/>
<path d="M26.2357 494.841L26.6465 458.177L-8.98958 457.777L-22.996 470.621L-36.1155 457.473L-73.3472 457.056L-73.758 493.721L-61.3801 504.693L-74.01 516.219L-74.4675 557.05L-37.2358 557.467L-23.8362 545.616L-10.1098 557.771L25.5263 558.17L25.9837 517.339L12.6152 505.522L26.2357 494.841Z" stroke="#FFF8E5" stroke-width="5"/>
<path d="M97.306 566.203L97.7168 529.539L62.0807 529.14L48.0743 541.983L34.9548 528.836L-2.27693 528.419L-2.68768 565.083L9.69017 576.056L-2.93973 587.582L-3.39716 628.412L33.8345 628.829L47.2341 616.979L60.9605 629.133L96.5966 629.533L97.054 588.702L83.6855 576.885L97.306 566.203Z" stroke="#FFF8E5" stroke-width="5"/>
<path d="M168.244 493.558L168.655 456.893L133.019 456.494L119.012 469.338L105.893 456.19L68.6611 455.773L68.2503 492.437L80.6282 503.41L67.9983 514.936L67.5408 555.767L104.773 556.184L118.172 544.333L131.898 556.488L167.535 556.887L167.992 516.056L154.624 504.239L168.244 493.558Z" stroke="#FFF8E5" stroke-width="5"/>
<path d="M207.706 523.422L207.521 560.089L243.159 560.268L257.086 547.339L270.286 560.405L307.52 560.593L307.705 523.927L295.26 513.031L307.818 501.427L308.024 460.595L270.791 460.407L257.465 472.34L243.664 460.27L208.026 460.09L207.82 500.923L221.261 512.657L207.706 523.422Z" stroke="#FFF8E5" stroke-width="5"/>
<path d="M277.352 593.775L277.167 630.441L312.805 630.621L326.732 617.691L339.932 630.758L377.165 630.946L377.351 594.28L364.905 583.383L377.464 571.78L377.67 530.947L340.437 530.759L327.11 542.692L313.309 530.622L277.671 530.442L277.465 571.275L290.906 583.01L277.352 593.775Z" stroke="#FFF8E5" stroke-width="5"/>
<path d="M346.992 665.127L346.807 701.793L382.445 701.973L396.372 689.043L409.573 702.11L446.806 702.298L446.991 665.632L434.546 654.736L447.105 643.132L447.311 602.299L410.077 602.112L396.751 614.044L382.95 601.975L347.312 601.795L347.106 642.628L360.547 654.362L346.992 665.127Z" stroke="#FFF8E5" stroke-width="5"/>
<path d="M346.714 522.124L346.529 558.79L382.167 558.97L396.094 546.04L409.294 559.107L446.528 559.295L446.713 522.629L434.268 511.733L446.827 500.129L447.033 459.296L409.799 459.108L396.473 471.041L382.672 458.971L347.034 458.792L346.828 499.624L360.269 511.359L346.714 522.124Z" stroke="#FFF8E5" stroke-width="5"/>
<path d="M419.36 592.492L419.175 629.158L454.813 629.338L468.74 616.408L481.94 629.475L519.174 629.663L519.359 592.996L506.914 582.1L519.472 570.497L519.679 529.664L482.445 529.476L469.119 541.409L455.318 529.339L419.68 529.159L419.474 569.992L432.915 581.727L419.36 592.492Z" stroke="#FFF8E5" stroke-width="5"/>
<path d="M489.016 660.844L488.831 697.51L524.469 697.69L538.396 684.76L551.596 697.827L588.83 698.015L589.015 661.349L576.569 650.452L589.128 638.849L589.334 598.016L552.101 597.828L538.774 609.761L524.973 597.691L489.336 597.512L489.129 638.344L502.57 650.079L489.016 660.844Z" stroke="#FFF8E5" stroke-width="5"/>
<path d="M488.738 517.841L488.553 554.507L524.191 554.687L538.118 541.757L551.318 554.824L588.551 555.012L588.737 518.346L576.291 507.449L588.85 495.846L589.056 455.013L551.823 454.825L538.496 466.758L524.695 454.688L489.057 454.508L488.851 495.341L502.292 507.076L488.738 517.841Z" stroke="#FFF8E5" stroke-width="5"/>
<path d="M559.378 589.198L559.193 625.865L594.831 626.044L608.758 613.115L621.959 626.181L659.192 626.369L659.377 589.703L646.932 578.807L659.491 567.203L659.697 526.37L622.463 526.183L609.137 538.115L595.336 526.046L559.698 525.866L559.492 566.699L572.933 578.433L559.378 589.198Z" stroke="#FFF8E5" stroke-width="5"/>
<path d="M559.378 589.198L559.193 625.865L594.831 626.044L608.758 613.115L621.959 626.181L659.192 626.369L659.377 589.703L646.932 578.807L659.491 567.203L659.697 526.37L622.463 526.183L609.137 538.115L595.336 526.046L559.698 525.866L559.492 566.699L572.933 578.433L559.378 589.198Z" stroke="#FFF8E5" stroke-width="5"/>
<path d="M631.014 661.561L630.829 698.227L666.467 698.407L680.394 685.477L693.594 698.544L730.828 698.732L731.013 662.066L718.568 651.169L731.126 639.566L731.333 598.733L694.099 598.545L680.773 610.478L666.972 598.408L631.334 598.228L631.128 639.061L644.569 650.796L631.014 661.561Z" stroke="#FFF8E5" stroke-width="5"/>
<path d="M630.736 518.558L630.551 555.224L666.189 555.404L680.116 542.474L693.316 555.541L730.55 555.729L730.735 519.062L718.289 508.166L730.848 496.563L731.054 455.73L693.821 455.542L680.494 467.475L666.693 455.405L631.056 455.225L630.849 496.058L644.29 507.793L630.736 518.558Z" stroke="#FFF8E5" stroke-width="5"/>
<path d="M701.377 589.915L701.192 626.581L736.829 626.761L750.757 613.831L763.957 626.898L801.19 627.086L801.375 590.42L788.93 579.524L801.489 567.92L801.695 527.087L764.462 526.899L751.135 538.832L737.334 526.762L701.696 526.583L701.49 567.415L714.931 579.15L701.377 589.915Z" stroke="#FFF8E5" stroke-width="5"/>
<path d="M771.012 662.267L770.827 698.934L806.465 699.113L820.392 686.184L833.593 699.25L870.826 699.438L871.011 662.772L858.566 651.876L871.125 640.272L871.331 599.44L834.097 599.252L820.771 611.185L806.97 599.115L771.332 598.935L771.126 639.768L784.567 651.502L771.012 662.267Z" stroke="#FFF8E5" stroke-width="5"/>
<path d="M770.734 519.264L770.549 555.93L806.187 556.11L820.114 543.18L833.314 556.247L870.548 556.435L870.733 519.769L858.288 508.873L870.846 497.269L871.053 456.436L833.819 456.248L820.493 468.181L806.692 456.112L771.054 455.932L770.848 496.765L784.289 508.499L770.734 519.264Z" stroke="#FFF8E5" stroke-width="5"/>
</g>
<g clip-path="url(#clip6_402_345)">
<path d="M1352.29 558.736L1352.22 522.069L1316.58 522.146L1302.74 535.175L1289.45 522.204L1252.22 522.284L1252.29 558.95L1264.82 569.757L1252.34 581.45L1252.43 622.284L1289.66 622.204L1302.9 610.175L1316.79 622.146L1352.43 622.069L1352.34 581.236L1338.82 569.598L1352.29 558.736Z" stroke="#FFF8E5" stroke-width="5"/>
<path d="M1422.44 629.586L1422.37 592.919L1386.73 592.995L1372.89 606.025L1359.6 593.054L1322.37 593.133L1322.44 629.8L1334.97 640.606L1322.49 652.3L1322.58 693.133L1359.81 693.053L1373.05 681.025L1386.94 692.995L1422.58 692.919L1422.49 652.085L1408.97 640.448L1422.44 629.586Z" stroke="#FFF8E5" stroke-width="5"/>
<path d="M1422.15 488.586L1422.07 451.919L1386.43 451.996L1372.6 465.026L1359.3 452.054L1322.07 452.134L1322.15 488.8L1334.67 499.607L1322.19 511.3L1322.28 552.134L1359.51 552.054L1372.76 540.025L1386.64 551.996L1422.28 551.919L1422.19 511.086L1408.67 499.448L1422.15 488.586Z" stroke="#FFF8E5" stroke-width="5"/>
<path d="M1282.13 482.886L1282.06 446.22L1246.42 446.296L1232.58 459.326L1219.29 446.354L1182.06 446.434L1182.13 483.101L1194.66 493.907L1182.18 505.601L1182.27 546.434L1219.5 546.354L1232.74 534.326L1246.63 546.296L1282.27 546.22L1282.18 505.386L1268.66 493.749L1282.13 482.886Z" stroke="#FFF8E5" stroke-width="5"/>
<path d="M1282.44 629.886L1282.37 593.219L1246.73 593.296L1232.89 606.325L1219.6 593.354L1182.37 593.434L1182.44 630.1L1194.97 640.907L1182.49 652.6L1182.58 693.433L1219.81 693.354L1233.05 681.325L1246.94 693.295L1282.58 693.219L1282.49 652.386L1268.97 640.748L1282.44 629.886Z" stroke="#FFF8E5" stroke-width="5"/>
<path d="M1396.96 586.306L1396.82 622.972L1432.45 623.115L1446.37 610.171L1459.58 623.224L1496.82 623.373L1496.96 586.707L1484.51 575.823L1497.06 564.207L1497.22 523.374L1459.99 523.224L1446.67 535.171L1432.86 523.116L1397.22 522.973L1397.06 563.806L1410.51 575.526L1396.96 586.306Z" stroke="#FFF8E5" stroke-width="5"/>
<path d="M1211.29 557.038L1211.21 520.372L1175.57 520.448L1161.74 533.478L1148.45 520.506L1111.21 520.586L1111.29 557.253L1123.81 568.059L1111.34 579.753L1111.42 620.586L1148.66 620.506L1161.9 608.478L1175.79 620.448L1211.42 620.372L1211.34 579.538L1197.81 567.901L1211.29 557.038Z" stroke="#FFF8E5" stroke-width="5"/>
<path d="M1142.13 483.186L1142.06 446.52L1106.42 446.596L1092.58 459.626L1079.29 446.654L1042.06 446.734L1042.13 483.401L1054.66 494.207L1042.18 505.901L1042.27 546.734L1079.5 546.654L1092.74 534.626L1106.63 546.596L1142.27 546.52L1142.18 505.686L1128.66 494.049L1142.13 483.186Z" stroke="#FFF8E5" stroke-width="5"/>
<path d="M1142.45 630.186L1142.37 593.52L1106.73 593.596L1092.9 606.626L1079.6 593.654L1042.37 593.734L1042.45 630.401L1054.97 641.207L1042.49 652.901L1042.58 693.734L1079.81 693.654L1093.05 681.625L1106.94 693.596L1142.58 693.519L1142.49 652.686L1128.97 641.048L1142.45 630.186Z" stroke="#FFF8E5" stroke-width="5"/>
<path d="M1072.3 559.337L1072.22 522.67L1036.58 522.746L1022.75 535.776L1009.45 522.805L972.218 522.884L972.295 559.551L984.818 570.357L972.343 582.051L972.429 622.884L1009.66 622.804L1022.9 610.776L1036.79 622.746L1072.43 622.67L1072.34 581.836L1058.82 570.199L1072.3 559.337Z" stroke="#FFF8E5" stroke-width="5"/>
<path d="M1000.14 485.491L1000.06 448.824L964.423 448.901L950.589 461.931L937.296 448.959L900.062 449.039L900.139 485.706L912.662 496.512L900.187 508.205L900.273 549.039L937.507 548.959L950.748 536.93L964.635 548.901L1000.27 548.824L1000.19 507.991L986.662 496.353L1000.14 485.491Z" stroke="#FFF8E5" stroke-width="5"/>
<path d="M1000.45 632.491L1000.37 595.824L964.734 595.9L950.9 608.93L937.606 595.959L900.372 596.038L900.45 632.705L912.973 643.512L900.497 655.205L900.584 696.038L937.817 695.958L951.058 683.93L964.945 695.9L1000.58 695.824L1000.5 654.991L986.972 643.353L1000.45 632.491Z" stroke="#FFF8E5" stroke-width="5"/>
<path d="M930.306 564.641L930.229 527.974L894.591 528.051L880.756 541.08L867.463 528.109L830.229 528.189L830.306 564.855L842.829 575.662L830.354 587.355L830.44 628.189L867.674 628.109L880.915 616.08L894.802 628.051L930.44 627.974L930.354 587.141L916.829 575.503L930.306 564.641Z" stroke="#FFF8E5" stroke-width="5"/>
<path d="M860.148 489.791L860.07 453.125L824.432 453.201L810.598 466.231L797.305 453.259L760.071 453.339L760.148 490.006L772.671 500.812L760.196 512.506L760.282 553.339L797.516 553.259L810.756 541.231L824.643 553.201L860.282 553.125L860.195 512.291L846.671 500.654L860.148 489.791Z" stroke="#FFF8E5" stroke-width="5"/>
<path d="M860.458 636.791L860.381 600.124L824.743 600.201L810.908 613.23L797.615 600.259L760.381 600.339L760.459 637.005L772.981 647.812L760.506 659.505L760.592 700.339L797.826 700.259L811.067 688.23L824.954 700.2L860.592 700.124L860.506 659.291L846.981 647.653L860.458 636.791Z" stroke="#FFF8E5" stroke-width="5"/>
<path d="M860.148 489.791L860.07 453.125L824.432 453.201L810.598 466.231L797.305 453.259L760.071 453.339L760.148 490.006L772.671 500.812L760.196 512.506L760.282 553.339L797.516 553.259L810.756 541.231L824.643 553.201L860.282 553.125L860.195 512.291L846.671 500.654L860.148 489.791Z" stroke="#FFF8E5" stroke-width="5"/>
<path d="M860.458 636.791L860.381 600.124L824.743 600.201L810.908 613.23L797.615 600.259L760.381 600.339L760.459 637.005L772.981 647.812L760.506 659.505L760.592 700.339L797.826 700.259L811.067 688.23L824.954 700.2L860.592 700.124L860.506 659.291L846.981 647.653L860.458 636.791Z" stroke="#FFF8E5" stroke-width="5"/>
</g>
</g>
</g>
<defs>
<filter id="filter0_d_402_345" x="-50" y="296" width="1540" height="355" filterUnits="userSpaceOnUse" color-interpolation-filters="sRGB">
<feFlood flood-opacity="0" result="BackgroundImageFix"/>
<feColorMatrix in="SourceAlpha" type="matrix" values="0 0 0 0 0 0 0 0 0 0 0 0 0 0 0 0 0 0 127 0" result="hardAlpha"/>
<feOffset/>
<feGaussianBlur stdDeviation="25"/>
<feComposite in2="hardAlpha" operator="out"/>
<feColorMatrix type="matrix" values="0 0 0 0 0.483333 0 0 0 0 0.477369 0 0 0 0 0.461181 0 0 0 0.25 0"/>
<feBlend mode="normal" in2="BackgroundImageFix" result="effect1_dropShadow_402_345"/>
<feBlend mode="normal" in="SourceGraphic" in2="effect1_dropShadow_402_345" result="shape"/>
</filter>
<clipPath id="clip0_402_345">
<rect width="1440" height="600" fill="white"/>
</clipPath>
<clipPath id="clip1_402_345">
<rect width="614" height="832.547" fill="white" transform="translate(-11 959.992) rotate(-89.7108)"/>
</clipPath>
<clipPath id="clip2_402_345">
<rect width="606.468" height="615.239" fill="white" transform="translate(1439.05 346.906) rotate(89.8781)"/>
</clipPath>
<clipPath id="clip3_402_345">
<rect width="614" height="826.237" fill="white" transform="translate(-11 1058.99) rotate(-89.7108)"/>
</clipPath>
<clipPath id="clip4_402_345">
<rect width="606.468" height="610.576" fill="white" transform="matrix(0.00211225 0.999998 -0.999998 0.00214464 1428.06 445.906)"/>
</clipPath>
<clipPath id="clip5_402_345">
<rect width="614" height="826.237" fill="white" transform="translate(-11 1058.99) rotate(-89.7108)"/>
</clipPath>
<clipPath id="clip6_402_345">
<rect width="606.468" height="610.576" fill="white" transform="matrix(0.00211225 0.999998 -0.999998 0.00214464 1428.06 445.906)"/>
</clipPath>
</defs>
</svg>
